<svg width="59" height="14" viewBox="0 0 59 14" fill="none" xmlns="http://www.w3.org/2000/svg">
<path d="M9.84911 5.70147H14.364V8.21081H9.46099C8.80492 8.21081 8.19886 8.56086 7.87045 9.12886L5.41784 13.3758L3.24438 12.1204L5.50218 8.21081H0.986572L0.986572 5.69998H5.50293L3.24512 1.79043L5.41784 0.535767L7.6749 4.44457L9.9327 0.535767L12.1062 1.79118L9.84911 5.70147Z" fill="#E09EFF"/>
<path d="M26.3174 5.8859H23.8394V8.92741C23.8394 9.17819 23.8513 9.40584 23.8767 9.61259C23.9021 9.81933 23.9581 9.99772 24.0454 10.1477C24.1327 10.2978 24.2678 10.4135 24.4492 10.4948C24.6306 10.5762 24.8716 10.6172 25.1717 10.6172C25.3217 10.6172 25.5188 10.6015 25.7628 10.5702C26.0069 10.5388 26.1912 10.4672 26.3166 10.3545V12.7011C26.0039 12.8138 25.6785 12.8892 25.3404 12.9265C25.0023 12.9638 24.6709 12.9825 24.3454 12.9825C23.87 12.9825 23.4319 12.9325 23.0311 12.8325C22.6303 12.7325 22.2802 12.5727 21.9794 12.354C21.6786 12.1354 21.4443 11.8502 21.2756 11.4994C21.1069 11.1494 21.0218 10.7239 21.0218 10.2231V5.88665H19.2193V3.63407H21.0218V0.929932L23.8379 0.929932V3.63333H26.3159V5.8859H26.3174Z" fill="#E09EFF"/>
<path d="M36.3802 11.1801C35.9294 11.7555 35.3599 12.2004 34.6717 12.5131C33.9836 12.8258 33.27 12.9826 32.5319 12.9826C31.7937 12.9826 31.1705 12.8699 30.551 12.6445C29.9315 12.4191 29.3933 12.0974 28.9366 11.6779C28.4798 11.2584 28.12 10.7554 27.8573 10.1665C27.5946 9.57833 27.4632 8.92151 27.4632 8.19528C27.4632 7.46905 27.5946 6.81224 27.8573 6.22409C28.12 5.63594 28.4798 5.13213 28.9366 4.71266C29.3933 4.2932 29.9315 3.97076 30.551 3.7461C31.1705 3.52069 31.8303 3.40799 32.5319 3.40799C33.1827 3.40799 33.7739 3.52069 34.306 3.7461C34.8382 3.97151 35.2883 4.29394 35.6577 4.71266C36.0264 5.13213 36.3115 5.63594 36.5123 6.22409C36.7124 6.81224 36.8124 7.4698 36.8124 8.19528V9.0775H30.2793C30.392 9.61565 30.6361 10.0441 31.0115 10.3635C31.3869 10.683 31.8497 10.842 32.4005 10.842C32.8633 10.842 33.2551 10.7389 33.5738 10.5322C33.8933 10.3255 34.1717 10.0597 34.409 9.73432L36.3802 11.1801ZM33.9963 7.16229C34.009 6.68684 33.8522 6.28007 33.5268 5.94196C33.2014 5.60384 32.7819 5.43516 32.2691 5.43516C31.9564 5.43516 31.681 5.48517 31.4429 5.58518C31.2048 5.6852 31.0018 5.81358 30.8324 5.97032C30.6637 6.12706 30.5323 6.30843 30.4383 6.51443C30.3442 6.72118 30.2912 6.93688 30.2785 7.16229H33.9955H33.9963Z" fill="#E09EFF"/>
<path d="M47.1554 11.18C46.7045 11.7555 46.1351 12.2003 45.4469 12.5131C44.7587 12.8258 44.0452 12.9825 43.307 12.9825C42.5688 12.9825 41.9456 12.8698 41.3261 12.6444C40.7066 12.419 40.1685 12.0973 39.7117 11.6779C39.2549 11.2584 38.8952 10.7553 38.6324 10.1664C38.3697 9.5783 38.2383 8.92148 38.2383 8.19525C38.2383 7.46902 38.3697 6.81221 38.6324 6.22406C38.8952 5.63591 39.2549 5.1321 39.7117 4.71263C40.1685 4.29317 40.7066 3.97073 41.3261 3.74607C41.9456 3.52066 42.6054 3.40796 43.307 3.40796C43.9579 3.40796 44.549 3.52066 45.0812 3.74607C45.6133 3.97148 46.0634 4.29391 46.4329 4.71263C46.8016 5.1321 47.0867 5.63591 47.2875 6.22406C47.4875 6.81221 47.5875 7.46977 47.5875 8.19525V9.07747H41.0544C41.1671 9.61562 41.4112 10.044 41.7866 10.3635C42.1621 10.6829 42.6248 10.8419 43.1757 10.8419C43.6384 10.8419 44.0303 10.7389 44.349 10.5322C44.6684 10.3254 44.9468 10.0597 45.1842 9.73429L47.1554 11.18ZM44.7714 7.16226C44.7841 6.68681 44.6274 6.28004 44.3019 5.94192C43.9765 5.60381 43.5571 5.43513 43.0443 5.43513C42.7316 5.43513 42.4561 5.48514 42.218 5.58515C41.98 5.68517 41.7769 5.81355 41.6075 5.97029C41.4388 6.12703 41.3075 6.3084 41.2134 6.5144C41.1194 6.72115 41.0664 6.93685 41.0537 7.16226H44.7707H44.7714Z" fill="#E09EFF"/>
<path d="M51.7545 7.8759L48.713 3.63272H52.0359L53.6503 6.11071L55.2088 3.63272H58.3443L55.3782 7.8759L58.8892 12.7572H55.5663L53.5764 9.71573L51.4366 12.7572H48.151L51.7553 7.8759H51.7545Z" fill="#E09EFF"/>
<path d="M10.8512 9.94751L8.6781 11.2022L9.93277 13.3753L12.1059 12.1207L10.8512 9.94751Z" fill="#E09EFF"/>
</svg>
