<svg width="21" height="21" viewBox="0 0 21 21" fill="none" xmlns="http://www.w3.org/2000/svg">
<g clip-path="url(#clip0_191_8996)">
<path d="M13.7036 20.1099H6.72024C5.03826 20.1077 3.42581 19.4386 2.23647 18.2492C1.04714 17.0599 0.377998 15.4474 0.375793 13.7655V6.78213C0.377998 5.10015 1.04714 3.4877 2.23647 2.29836C3.42581 1.10903 5.03826 0.439888 6.72024 0.437683H13.7036C15.3855 0.439888 16.998 1.10903 18.1873 2.29836C19.3767 3.4877 20.0458 5.10015 20.048 6.78213V13.7655C20.0458 15.4474 19.3767 17.0599 18.1873 18.2492C16.998 19.4386 15.3855 20.1077 13.7036 20.1099ZM6.72024 2.10435C5.47984 2.10509 4.29046 2.59816 3.41336 3.47525C2.53627 4.35235 2.0432 5.54173 2.04246 6.78213V13.7655C2.0432 15.0059 2.53627 16.1952 3.41336 17.0723C4.29046 17.9494 5.47984 18.4425 6.72024 18.4432H13.7036C14.944 18.4425 16.1334 17.9494 17.0104 17.0723C17.8875 16.1952 18.3806 15.0059 18.3813 13.7655V6.78213C18.3806 5.54173 17.8875 4.35235 17.0104 3.47525C16.1334 2.59816 14.944 2.10509 13.7036 2.10435H6.72024Z" fill="#BEBFC1"/>
</g>
<defs>
<clipPath id="clip0_191_8996">
<rect width="20" height="20" fill="white" transform="translate(0.211914 0.273804)"/>
</clipPath>
</defs>
</svg>
