<svg width="21" height="21" viewBox="0 0 21 21" fill="none" xmlns="http://www.w3.org/2000/svg">
<path d="M10.2343 15.1136C10.4731 15.1136 10.6654 15.042 10.8112 14.8989C10.9571 14.7557 11.03 14.5647 11.03 14.326C11.03 14.0872 10.9584 13.8949 10.8153 13.749C10.6721 13.6032 10.4811 13.5303 10.2423 13.5303C10.0036 13.5303 9.81124 13.6018 9.66541 13.745C9.51957 13.8882 9.44666 14.0791 9.44666 14.3179C9.44666 14.5567 9.51823 14.749 9.66138 14.8949C9.80454 15.0407 9.99551 15.1136 10.2343 15.1136ZM10.3187 11.7386C10.529 11.7386 10.7071 11.6648 10.8529 11.5172C10.9987 11.3697 11.0717 11.1865 11.0717 10.9678V7.15527C11.0717 6.95006 10.9975 6.77375 10.8493 6.62635C10.701 6.47896 10.5217 6.40527 10.3114 6.40527C10.1011 6.40527 9.92179 6.47896 9.77341 6.62635C9.62502 6.77375 9.55082 6.95006 9.55082 7.15527V10.9678C9.55082 11.1865 9.62624 11.3697 9.77707 11.5172C9.92789 11.6648 10.1084 11.7386 10.3187 11.7386ZM10.2343 19.4469C9.04104 19.4469 7.91936 19.2176 6.86928 18.759C5.8192 18.3004 4.90304 17.68 4.12082 16.8978C3.3386 16.1155 2.71818 15.198 2.25957 14.145C1.80096 13.0921 1.57166 11.967 1.57166 10.7699C1.57166 9.57416 1.80137 8.45048 2.2608 7.39883C2.72023 6.34719 3.34305 5.42837 4.12926 4.64237C4.91545 3.85637 5.83251 3.23841 6.88043 2.7885C7.92834 2.33857 9.04804 2.1136 10.2395 2.1136C11.436 2.1136 12.5622 2.33857 13.6181 2.7885C14.674 3.23841 15.5934 3.85647 16.3764 4.64266C17.1593 5.42885 17.7765 6.35 18.2279 7.40614C18.6793 8.46227 18.905 9.58889 18.905 10.786C18.905 11.9831 18.68 13.1032 18.2301 14.1464C17.7802 15.1895 17.1622 16.1027 16.3762 16.886C15.5902 17.6693 14.6693 18.292 13.6134 18.754C12.5575 19.2159 11.4311 19.4469 10.2343 19.4469Z" fill="#FFC60B"/>
</svg>
