<svg width="19" height="19" viewBox="0 0 19 19" fill="none" xmlns="http://www.w3.org/2000/svg">
<g clip-path="url(#clip0_191_9000)">
<path d="M18.5141 4.6109C18.0641 5.08902 17.6703 5.5334 17.2991 5.97777C17.3217 6.14746 17.333 6.31846 17.3328 6.48965V12.7728C17.3328 13.8892 16.8897 14.96 16.1008 15.7499C15.3119 16.5399 14.2417 16.9844 13.1253 16.9859H6.83657C5.72016 16.9844 4.64998 16.5399 3.86108 15.7499C3.07218 14.96 2.62907 13.8892 2.62907 12.7728V6.48965C2.63205 5.37518 3.07647 4.30729 3.86505 3.51977C4.65362 2.73225 5.7221 2.28926 6.83657 2.28777H13.2266C13.5922 1.84902 13.9859 1.40465 14.4247 0.932148C13.9987 0.832866 13.5628 0.78192 13.1253 0.780273H6.83657C5.32281 0.781763 3.87147 1.38376 2.80108 2.45416C1.73069 3.52455 1.12869 4.97588 1.1272 6.48965V12.7728C1.12869 14.2865 1.73069 15.7379 2.80108 16.8083C3.87147 17.8787 5.32281 18.4807 6.83657 18.4821H13.1253C14.6391 18.4807 16.0904 17.8787 17.1608 16.8083C18.2312 15.7379 18.8332 14.2865 18.8347 12.7728V6.48965C18.8355 5.84972 18.727 5.21435 18.5141 4.6109Z" fill="#BEBFC1"/>
<path d="M18.2609 2.0009L17.4734 2.79965C17.1022 3.18777 16.7591 3.5534 16.4441 3.92465C14.5597 6.03402 13.5134 7.77215 11.1959 11.5859L10.3691 12.9528L6.08281 9.67902C5.92493 9.55949 5.82088 9.38224 5.79346 9.18612C5.76605 8.99 5.81751 8.79101 5.93656 8.63277C6.00731 8.54025 6.09838 8.46524 6.20275 8.41355C6.30711 8.36185 6.42197 8.33486 6.53844 8.33465C6.70095 8.33505 6.85892 8.38837 6.98844 8.48652L9.98094 10.7253C12.2309 6.9509 13.3559 5.10027 15.3303 2.90652C15.6509 2.54652 15.9884 2.1809 16.3653 1.78152C16.6297 1.5059 16.9278 1.21902 17.2034 0.926523C17.3437 0.786378 17.5339 0.707657 17.7322 0.707657C17.9305 0.707657 18.1207 0.786378 18.2609 0.926523C18.3322 0.996664 18.3888 1.08028 18.4274 1.17251C18.466 1.26473 18.4859 1.36372 18.4859 1.46371C18.4859 1.5637 18.466 1.66269 18.4274 1.75491C18.3888 1.84714 18.3322 1.93076 18.2609 2.0009Z" fill="white"/>
</g>
<defs>
<clipPath id="clip0_191_9000">
<rect width="18" height="18" fill="white" transform="translate(0.980957 0.600281)"/>
</clipPath>
</defs>
</svg>
