<svg width="80" height="39" viewBox="0 0 80 39" fill="none" xmlns="http://www.w3.org/2000/svg">
<g filter="url(#filter0_biiiiii_196_10866)">
<rect x="0.876587" y="0.0356445" width="78.1952" height="38.2997" rx="9.57492" fill="white" fill-opacity="0.05"/>
<g clip-path="url(#clip0_196_10866)">
<path d="M23.7457 27.8186H17.6164C16.1401 27.8167 14.7249 27.2294 13.681 26.1855C12.6371 25.1416 12.0498 23.7264 12.0479 22.2501V16.1208C12.0498 14.6445 12.6371 13.2293 13.681 12.1854C14.7249 11.1415 16.1401 10.5542 17.6164 10.5523H23.7457C25.2219 10.5542 26.6372 11.1415 27.6811 12.1854C28.7249 13.2293 29.3122 14.6445 29.3142 16.1208V22.2501C29.3122 23.7264 28.7249 25.1416 27.6811 26.1855C26.6372 27.2294 25.2219 27.8167 23.7457 27.8186ZM17.6164 12.0151C16.5277 12.0158 15.4838 12.4485 14.7139 13.2184C13.9441 13.9882 13.5113 15.0321 13.5107 16.1208V22.2501C13.5113 23.3388 13.9441 24.3827 14.7139 25.1525C15.4838 25.9224 16.5277 26.3551 17.6164 26.3558H23.7457C24.8344 26.3551 25.8783 25.9224 26.6481 25.1525C27.4179 24.3827 27.8507 23.3388 27.8513 22.2501V16.1208C27.8507 15.0321 27.4179 13.9882 26.6481 13.2184C25.8783 12.4485 24.8344 12.0158 23.7457 12.0151H17.6164Z" fill="#BEBFC1"/>
</g>
<g clip-path="url(#clip1_196_10866)">
<path d="M63.2819 14.2884C65.1561 14.2884 66.6754 12.7691 66.6754 10.8949C66.6754 9.02071 65.1561 7.50137 63.2819 7.50137C61.4077 7.50137 59.8884 9.02071 59.8884 10.8949C59.8884 12.7691 61.4077 14.2884 63.2819 14.2884Z" fill="#FF4050"/>
</g>
<path d="M65.4226 29.4906C65.2989 29.4906 65.1753 29.4427 65.0755 29.351L63.2762 27.6275L61.4769 29.351C61.2775 29.5425 60.9623 29.5345 60.7708 29.335C60.5793 29.1355 60.5873 28.8204 60.7868 28.6289L62.9291 26.5743C63.1206 26.3907 63.4278 26.3907 63.6193 26.5743L65.7617 28.6289C65.9612 28.8204 65.9652 29.1355 65.7777 29.335C65.6779 29.4388 65.5503 29.4866 65.4186 29.4866L65.4226 29.4906Z" fill="#A8A8A8"/>
<rect x="1.55529" y="0.714349" width="76.8378" height="36.9423" rx="8.89622" stroke="#646668" stroke-width="1.35741"/>
</g>
<defs>
<filter id="filter0_biiiiii_196_10866" x="-129.435" y="-130.276" width="338.818" height="298.922" filterUnits="userSpaceOnUse" color-interpolation-filters="sRGB">
<feFlood flood-opacity="0" result="BackgroundImageFix"/>
<feGaussianBlur in="BackgroundImageFix" stdDeviation="65.1557"/>
<feComposite in2="SourceAlpha" operator="in" result="effect1_backgroundBlur_196_10866"/>
<feBlend mode="normal" in="SourceGraphic" in2="effect1_backgroundBlur_196_10866" result="shape"/>
<feColorMatrix in="SourceAlpha" type="matrix" values="0 0 0 0 0 0 0 0 0 0 0 0 0 0 0 0 0 0 127 0" result="hardAlpha"/>
<feMorphology radius="1.35741" operator="erode" in="SourceAlpha" result="effect2_innerShadow_196_10866"/>
<feOffset dx="4.07223" dy="4.07223"/>
<feGaussianBlur stdDeviation="13.5741"/>
<feComposite in2="hardAlpha" operator="arithmetic" k2="-1" k3="1"/>
<feColorMatrix type="matrix" values="0 0 0 0 0.537812 0 0 0 0 0.554171 0 0 0 0 0.612188 0 0 0 0.15 0"/>
<feBlend mode="normal" in2="shape" result="effect2_innerShadow_196_10866"/>
<feColorMatrix in="SourceAlpha" type="matrix" values="0 0 0 0 0 0 0 0 0 0 0 0 0 0 0 0 0 0 127 0" result="hardAlpha"/>
<feMorphology radius="17.6463" operator="dilate" in="SourceAlpha" result="effect3_innerShadow_196_10866"/>
<feOffset dx="13.5741" dy="20.3611"/>
<feGaussianBlur stdDeviation="67.8705"/>
<feComposite in2="hardAlpha" operator="arithmetic" k2="-1" k3="1"/>
<feColorMatrix type="matrix" values="0 0 0 0 0.768021 0 0 0 0 0.768021 0 0 0 0 0.806979 0 0 0 0.15 0"/>
<feBlend mode="normal" in2="effect2_innerShadow_196_10866" result="effect3_innerShadow_196_10866"/>
<feColorMatrix in="SourceAlpha" type="matrix" values="0 0 0 0 0 0 0 0 0 0 0 0 0 0 0 0 0 0 127 0" result="hardAlpha"/>
<feMorphology radius="81.4446" operator="dilate" in="SourceAlpha" result="effect4_innerShadow_196_10866"/>
<feOffset dx="20.3611" dy="20.3611"/>
<feGaussianBlur stdDeviation="37.3288"/>
<feComposite in2="hardAlpha" operator="arithmetic" k2="-1" k3="1"/>
<feColorMatrix type="matrix" values="0 0 0 0 1 0 0 0 0 1 0 0 0 0 1 0 0 0 1 0"/>
<feBlend mode="normal" in2="effect3_innerShadow_196_10866" result="effect4_innerShadow_196_10866"/>
<feColorMatrix in="SourceAlpha" type="matrix" values="0 0 0 0 0 0 0 0 0 0 0 0 0 0 0 0 0 0 127 0" result="hardAlpha"/>
<feMorphology radius="67.8705" operator="dilate" in="SourceAlpha" result="effect5_innerShadow_196_10866"/>
<feOffset dx="13.5741" dy="13.5741"/>
<feGaussianBlur stdDeviation="6.78705"/>
<feComposite in2="hardAlpha" operator="arithmetic" k2="-1" k3="1"/>
<feColorMatrix type="matrix" values="0 0 0 0 0.787031 0 0 0 0 0.787031 0 0 0 0 0.821302 0 0 0 0.3 0"/>
<feBlend mode="normal" in2="effect4_innerShadow_196_10866" result="effect5_innerShadow_196_10866"/>
<feColorMatrix in="SourceAlpha" type="matrix" values="0 0 0 0 0 0 0 0 0 0 0 0 0 0 0 0 0 0 127 0" result="hardAlpha"/>
<feMorphology radius="67.8705" operator="dilate" in="SourceAlpha" result="effect6_innerShadow_196_10866"/>
<feOffset dx="40.7223" dy="40.7223"/>
<feGaussianBlur stdDeviation="20.3611"/>
<feComposite in2="hardAlpha" operator="arithmetic" k2="-1" k3="1"/>
<feColorMatrix type="matrix" values="0 0 0 0 1 0 0 0 0 1 0 0 0 0 1 0 0 0 0.35 0"/>
<feBlend mode="normal" in2="effect5_innerShadow_196_10866" result="effect6_innerShadow_196_10866"/>
<feColorMatrix in="SourceAlpha" type="matrix" values="0 0 0 0 0 0 0 0 0 0 0 0 0 0 0 0 0 0 127 0" result="hardAlpha"/>
<feMorphology radius="95.0187" operator="dilate" in="SourceAlpha" result="effect7_innerShadow_196_10866"/>
<feOffset dx="6.78705" dy="6.78705"/>
<feGaussianBlur stdDeviation="27.1482"/>
<feComposite in2="hardAlpha" operator="arithmetic" k2="-1" k3="1"/>
<feColorMatrix type="matrix" values="0 0 0 0 1 0 0 0 0 1 0 0 0 0 1 0 0 0 0.6 0"/>
<feBlend mode="normal" in2="effect6_innerShadow_196_10866" result="effect7_innerShadow_196_10866"/>
</filter>
<clipPath id="clip0_196_10866">
<rect width="17.554" height="17.554" fill="white" transform="translate(11.9037 10.4085)"/>
</clipPath>
<clipPath id="clip1_196_10866">
<rect width="13.5741" height="13.5741" fill="white" transform="translate(56.4942 4.10797)"/>
</clipPath>
</defs>
</svg>
