<svg width="273" height="102" viewBox="0 0 273 102" fill="none" xmlns="http://www.w3.org/2000/svg">
<path d="M39.9931 45.3876H60.25V57.1124H38.2592C35.3142 57.1124 32.5895 58.7464 31.1307 61.4124L20.1216 81.25L10.3784 75.3733L20.5069 57.1124H0.25V45.3876H20.5069L10.3784 27.1267L20.1216 21.25L30.25 39.5109L40.3784 21.25L50.1216 27.1267L39.9931 45.3876Z" fill="white"/>
<path d="M44.498 65.2301L34.7493 71.0925L40.3777 81.2464L50.1264 75.384L44.498 65.2301Z" fill="white"/>
<path d="M98.41 78.75V30.19H111.53V78.75H98.41ZM82.01 31.79V20.35H128.01V31.79H82.01ZM150.154 80.27C146.421 80.27 143.114 79.63 140.234 78.35C137.408 77.07 135.034 75.3633 133.114 73.23C131.248 71.0433 129.808 68.6167 128.794 65.95C127.834 63.23 127.354 60.4567 127.354 57.63V56.03C127.354 53.0967 127.834 50.2967 128.794 47.63C129.808 44.91 131.248 42.4833 133.114 40.35C134.981 38.2167 137.301 36.5367 140.074 35.31C142.901 34.03 146.101 33.39 149.674 33.39C154.368 33.39 158.314 34.4567 161.514 36.59C164.768 38.67 167.248 41.4167 168.954 44.83C170.661 48.19 171.514 51.87 171.514 55.87V60.19H132.714V52.91H163.754L159.594 56.27C159.594 53.6567 159.221 51.4167 158.474 49.55C157.728 47.6833 156.608 46.27 155.114 45.31C153.674 44.2967 151.861 43.79 149.674 43.79C147.434 43.79 145.541 44.2967 143.994 45.31C142.448 46.3233 141.274 47.8167 140.474 49.79C139.674 51.71 139.274 54.0833 139.274 56.91C139.274 59.5233 139.648 61.8167 140.394 63.79C141.141 65.71 142.314 67.2033 143.914 68.27C145.514 69.3367 147.594 69.87 150.154 69.87C152.501 69.87 154.421 69.4167 155.914 68.51C157.408 67.6033 158.421 66.4833 158.954 65.15H170.714C170.074 68.0833 168.821 70.6967 166.954 72.99C165.088 75.2833 162.741 77.07 159.914 78.35C157.088 79.63 153.834 80.27 150.154 80.27ZM200.076 80.27C196.343 80.27 193.036 79.63 190.156 78.35C187.33 77.07 184.956 75.3633 183.036 73.23C181.17 71.0433 179.73 68.6167 178.716 65.95C177.756 63.23 177.276 60.4567 177.276 57.63V56.03C177.276 53.0967 177.756 50.2967 178.716 47.63C179.73 44.91 181.17 42.4833 183.036 40.35C184.903 38.2167 187.223 36.5367 189.996 35.31C192.823 34.03 196.023 33.39 199.596 33.39C204.29 33.39 208.236 34.4567 211.436 36.59C214.69 38.67 217.17 41.4167 218.876 44.83C220.583 48.19 221.436 51.87 221.436 55.87V60.19H182.636V52.91H213.676L209.516 56.27C209.516 53.6567 209.143 51.4167 208.396 49.55C207.65 47.6833 206.53 46.27 205.036 45.31C203.596 44.2967 201.783 43.79 199.596 43.79C197.356 43.79 195.463 44.2967 193.916 45.31C192.37 46.3233 191.196 47.8167 190.396 49.79C189.596 51.71 189.196 54.0833 189.196 56.91C189.196 59.5233 189.57 61.8167 190.316 63.79C191.063 65.71 192.236 67.2033 193.836 68.27C195.436 69.3367 197.516 69.87 200.076 69.87C202.423 69.87 204.343 69.4167 205.836 68.51C207.33 67.6033 208.343 66.4833 208.876 65.15H220.636C219.996 68.0833 218.743 70.6967 216.876 72.99C215.01 75.2833 212.663 77.07 209.836 78.35C207.01 79.63 203.756 80.27 200.076 80.27ZM224.804 78.75L238.404 55.23L238.084 57.23L225.284 34.91H239.124L247.044 49.79H248.324L255.764 34.91H268.804L256.564 57.39L256.884 55.71L271.284 78.75H257.364L247.924 62.83H246.644L237.764 78.75H224.804Z" fill="white"/>
</svg>
