<svg width="31" height="32" viewBox="0 0 31 32" fill="none" xmlns="http://www.w3.org/2000/svg">
<path d="M18.9478 5.6333C19.9244 5.6333 20.7477 6.28887 21.0019 7.18389C21.8194 9.55744 23.3015 12.9363 24.4022 14.4637C24.597 13.9602 24.7381 13.3298 24.7997 12.7755C24.8211 12.5832 24.9555 11.3343 25.1432 10.7761C25.3695 10.1035 25.8358 9.52473 26.5371 9.29828C27.6783 8.92968 28.9182 9.60547 29.3065 10.8077C29.3423 10.9186 29.3697 11.03 29.3888 11.1412C29.5222 11.7126 29.4297 12.2377 29.3748 12.5839C29.2896 13.1215 29.097 14.4107 29.0076 15.2667C28.8958 16.3366 28.8319 18.1331 29.1353 20.1532C29.4419 21.5968 29.3588 23.1288 29.279 23.7143C28.3995 30.164 21.2586 30.6448 19.2505 29.6936C17.8821 29.2489 16.431 28.1909 14.4358 26.1496C12.103 23.7628 9.97218 21.1359 8.78594 19.3598C8.51789 19.0057 8.35889 18.5645 8.35889 18.0862C8.35889 16.9194 9.30465 15.9738 10.4713 15.9738C10.6947 15.9738 10.9101 16.0084 11.1122 16.0727C10.727 15.3221 10.4164 14.666 10.1743 13.9403C10.1002 13.7248 10.06 13.4935 10.06 13.2528C10.06 12.0862 11.0057 11.1404 12.1724 11.1404C12.8193 11.1404 13.3984 11.4314 13.7859 11.8895C13.6637 11.6161 12.933 9.81233 12.8049 8.97164C12.7891 8.86709 12.7808 8.76003 12.7808 8.65103C12.7808 7.48439 13.7266 6.53863 14.8932 6.53863C15.7446 6.53863 16.4784 7.04238 16.8127 7.76809C16.8129 6.58905 17.7687 5.6333 18.9478 5.6333Z" fill="#F5BFAE"/>
<path d="M18.9478 5.6333C19.9244 5.6333 20.7477 6.28887 21.0019 7.18389C21.8194 9.55744 23.3015 12.9363 24.4022 14.4637C24.597 13.9602 24.7381 13.3298 24.7997 12.7755C24.8211 12.5832 24.9555 11.3343 25.1432 10.7761C25.3695 10.1035 25.8358 9.52473 26.5371 9.29828C27.6783 8.92968 28.9182 9.60547 29.3065 10.8077C29.3423 10.9186 29.3697 11.03 29.3888 11.1412C29.5222 11.7126 29.4297 12.2377 29.3748 12.5839C29.2896 13.1215 29.097 14.4107 29.0076 15.2667C28.8958 16.3366 28.8319 18.1331 29.1353 20.1532C29.4419 21.5968 29.3588 23.1288 29.279 23.7143C28.3995 30.164 21.2586 30.6448 19.2505 29.6936C17.8821 29.2489 16.431 28.1909 14.4358 26.1496C12.103 23.7628 9.97218 21.1359 8.78594 19.3598C8.51789 19.0057 8.35889 18.5645 8.35889 18.0862C8.35889 16.9194 9.30465 15.9738 10.4713 15.9738C10.6947 15.9738 10.9101 16.0084 11.1122 16.0727C10.727 15.3221 10.4164 14.666 10.1743 13.9403C10.1002 13.7248 10.06 13.4935 10.06 13.2528C10.06 12.0862 11.0057 11.1404 12.1724 11.1404C12.8193 11.1404 13.3984 11.4314 13.7859 11.8895C13.6637 11.6161 12.933 9.81233 12.8049 8.97164C12.7891 8.86709 12.7808 8.76003 12.7808 8.65103C12.7808 7.48439 13.7266 6.53863 14.8932 6.53863C15.7446 6.53863 16.4784 7.04238 16.8127 7.76809C16.8129 6.58905 17.7687 5.6333 18.9478 5.6333Z" fill="url(#paint0_radial_487_566)"/>
<path d="M18.9478 5.6333C19.9244 5.6333 20.7477 6.28887 21.0019 7.18389C21.8194 9.55744 23.3015 12.9363 24.4022 14.4637C24.597 13.9602 24.7381 13.3298 24.7997 12.7755C24.8211 12.5832 24.9555 11.3343 25.1432 10.7761C25.3695 10.1035 25.8358 9.52473 26.5371 9.29828C27.6783 8.92968 28.9182 9.60547 29.3065 10.8077C29.3423 10.9186 29.3697 11.03 29.3888 11.1412C29.5222 11.7126 29.4297 12.2377 29.3748 12.5839C29.2896 13.1215 29.097 14.4107 29.0076 15.2667C28.8958 16.3366 28.8319 18.1331 29.1353 20.1532C29.4419 21.5968 29.3588 23.1288 29.279 23.7143C28.3995 30.164 21.2586 30.6448 19.2505 29.6936C17.8821 29.2489 16.431 28.1909 14.4358 26.1496C12.103 23.7628 9.97218 21.1359 8.78594 19.3598C8.51789 19.0057 8.35889 18.5645 8.35889 18.0862C8.35889 16.9194 9.30465 15.9738 10.4713 15.9738C10.6947 15.9738 10.9101 16.0084 11.1122 16.0727C10.727 15.3221 10.4164 14.666 10.1743 13.9403C10.1002 13.7248 10.06 13.4935 10.06 13.2528C10.06 12.0862 11.0057 11.1404 12.1724 11.1404C12.8193 11.1404 13.3984 11.4314 13.7859 11.8895C13.6637 11.6161 12.933 9.81233 12.8049 8.97164C12.7891 8.86709 12.7808 8.76003 12.7808 8.65103C12.7808 7.48439 13.7266 6.53863 14.8932 6.53863C15.7446 6.53863 16.4784 7.04238 16.8127 7.76809C16.8129 6.58905 17.7687 5.6333 18.9478 5.6333Z" fill="url(#paint1_linear_487_566)"/>
<path d="M16.813 7.74241C16.8422 7.99582 16.9169 8.32097 17.0697 8.71938C17.1363 8.89295 17.2174 9.11535 17.3127 9.3767C17.7406 10.6306 18.5452 12.7574 19.6119 14.7014C20.0138 15.4337 20.7471 15.9479 21.5817 15.909C22.6812 15.8577 23.9445 15.4948 24.4285 14.4123L24.4257 14.402C24.418 14.4228 24.4102 14.4434 24.4023 14.4637C23.3016 12.9363 21.8194 9.55744 21.0019 7.1839C20.7478 6.28887 19.9244 5.6333 18.9479 5.6333C17.7774 5.6333 16.8269 6.5752 16.813 7.74241Z" fill="url(#paint2_radial_487_566)"/>
<path d="M16.813 7.74241C16.8422 7.99582 16.9169 8.32097 17.0697 8.71938C17.1363 8.89295 17.2174 9.11535 17.3127 9.3767C17.7406 10.6306 18.5452 12.7574 19.6119 14.7014C20.0138 15.4337 20.7471 15.9479 21.5817 15.909C22.6812 15.8577 23.9445 15.4948 24.4285 14.4123L24.4257 14.402C24.418 14.4228 24.4102 14.4434 24.4023 14.4637C23.3016 12.9363 21.8194 9.55744 21.0019 7.1839C20.7478 6.28887 19.9244 5.6333 18.9479 5.6333C17.7774 5.6333 16.8269 6.5752 16.813 7.74241Z" fill="url(#paint3_radial_487_566)"/>
<path d="M16.813 7.74241C16.8422 7.99582 16.9169 8.32097 17.0697 8.71938C17.1363 8.89295 17.2174 9.11535 17.3127 9.3767C17.7406 10.6306 18.5452 12.7574 19.6119 14.7014C20.0138 15.4337 20.7471 15.9479 21.5817 15.909C22.6812 15.8577 23.9445 15.4948 24.4285 14.4123L24.4257 14.402C24.418 14.4228 24.4102 14.4434 24.4023 14.4637C23.3016 12.9363 21.8194 9.55744 21.0019 7.1839C20.7478 6.28887 19.9244 5.6333 18.9479 5.6333C17.7774 5.6333 16.8269 6.5752 16.813 7.74241Z" fill="url(#paint4_linear_487_566)"/>
<path d="M16.813 7.74241C16.8422 7.99582 16.9169 8.32097 17.0697 8.71938C17.1363 8.89295 17.2174 9.11535 17.3127 9.3767C17.7406 10.6306 18.5452 12.7574 19.6119 14.7014C20.0138 15.4337 20.7471 15.9479 21.5817 15.909C22.6812 15.8577 23.9445 15.4948 24.4285 14.4123L24.4257 14.402C24.418 14.4228 24.4102 14.4434 24.4023 14.4637C23.3016 12.9363 21.8194 9.55744 21.0019 7.1839C20.7478 6.28887 19.9244 5.6333 18.9479 5.6333C17.7774 5.6333 16.8269 6.5752 16.813 7.74241Z" fill="url(#paint5_radial_487_566)"/>
<path d="M16.813 7.74241C16.8422 7.99582 16.9169 8.32097 17.0697 8.71938C17.1363 8.89295 17.2174 9.11535 17.3127 9.3767C17.7406 10.6306 18.5452 12.7574 19.6119 14.7014C20.0138 15.4337 20.7471 15.9479 21.5817 15.909C22.6812 15.8577 23.9445 15.4948 24.4285 14.4123L24.4257 14.402C24.418 14.4228 24.4102 14.4434 24.4023 14.4637C23.3016 12.9363 21.8194 9.55744 21.0019 7.1839C20.7478 6.28887 19.9244 5.6333 18.9479 5.6333C17.7774 5.6333 16.8269 6.5752 16.813 7.74241Z" fill="url(#paint6_radial_487_566)"/>
<path d="M10.1788 13.9404C10.1047 13.725 10.0645 13.4937 10.0645 13.253C10.0645 12.0864 11.0102 11.1406 12.1769 11.1406C12.8128 11.1406 13.3829 11.4216 13.7702 11.8662C14.8277 13.9974 16.13 16.4837 17.1192 17.9337C15.8617 19.6424 15.5596 20.5048 15.2988 21.2393C14.5003 20.1268 12.8299 17.8619 12.2328 17.1033C11.9127 16.6967 11.5222 16.1771 11.119 16.0733C10.6958 15.2948 10.3884 14.569 10.1788 13.9404Z" fill="url(#paint7_radial_487_566)"/>
<path d="M10.1788 13.9404C10.1047 13.725 10.0645 13.4937 10.0645 13.253C10.0645 12.0864 11.0102 11.1406 12.1769 11.1406C12.8128 11.1406 13.3829 11.4216 13.7702 11.8662C14.8277 13.9974 16.13 16.4837 17.1192 17.9337C15.8617 19.6424 15.5596 20.5048 15.2988 21.2393C14.5003 20.1268 12.8299 17.8619 12.2328 17.1033C11.9127 16.6967 11.5222 16.1771 11.119 16.0733C10.6958 15.2948 10.3884 14.569 10.1788 13.9404Z" fill="url(#paint8_radial_487_566)"/>
<path d="M10.1788 13.9404C10.1047 13.725 10.0645 13.4937 10.0645 13.253C10.0645 12.0864 11.0102 11.1406 12.1769 11.1406C12.8128 11.1406 13.3829 11.4216 13.7702 11.8662C14.8277 13.9974 16.13 16.4837 17.1192 17.9337C15.8617 19.6424 15.5596 20.5048 15.2988 21.2393C14.5003 20.1268 12.8299 17.8619 12.2328 17.1033C11.9127 16.6967 11.5222 16.1771 11.119 16.0733C10.6958 15.2948 10.3884 14.569 10.1788 13.9404Z" fill="url(#paint9_radial_487_566)"/>
<path d="M10.1788 13.9404C10.1047 13.725 10.0645 13.4937 10.0645 13.253C10.0645 12.0864 11.0102 11.1406 12.1769 11.1406C12.8128 11.1406 13.3829 11.4216 13.7702 11.8662C14.8277 13.9974 16.13 16.4837 17.1192 17.9337C15.8617 19.6424 15.5596 20.5048 15.2988 21.2393C14.5003 20.1268 12.8299 17.8619 12.2328 17.1033C11.9127 16.6967 11.5222 16.1771 11.119 16.0733C10.6958 15.2948 10.3884 14.569 10.1788 13.9404Z" fill="url(#paint10_linear_487_566)"/>
<path d="M10.1788 13.9404C10.1047 13.725 10.0645 13.4937 10.0645 13.253C10.0645 12.0864 11.0102 11.1406 12.1769 11.1406C12.8128 11.1406 13.3829 11.4216 13.7702 11.8662C14.8277 13.9974 16.13 16.4837 17.1192 17.9337C15.8617 19.6424 15.5596 20.5048 15.2988 21.2393C14.5003 20.1268 12.8299 17.8619 12.2328 17.1033C11.9127 16.6967 11.5222 16.1771 11.119 16.0733C10.6958 15.2948 10.3884 14.569 10.1788 13.9404Z" fill="url(#paint11_radial_487_566)"/>
<path d="M15.9143 19.2273C14.1758 16.3518 13.0568 14.271 12.4293 13.2012C12.2733 12.9351 12.3447 12.5893 12.5999 12.4161C12.8725 12.231 13.245 12.3166 13.4094 12.6022L14.8085 15.0324L16.5321 18.1573C16.3406 18.6683 16.117 19.0676 15.9143 19.2273Z" fill="#FFD6C0"/>
<path d="M24.3984 14.4586C24.3999 14.4607 24.4012 14.4626 24.4026 14.4646C24.5975 13.961 24.7386 13.3306 24.8001 12.7763C24.8007 12.7709 24.8014 12.7647 24.8021 12.7577C24.8291 12.5145 24.9612 11.3195 25.1437 10.7769C25.3699 10.1042 25.8363 9.52556 26.5375 9.29911C27.6787 8.93051 28.9186 9.6063 29.307 10.8085C29.3428 10.9193 29.37 11.0308 29.3893 11.142C29.5176 11.6917 29.4368 12.1987 29.3816 12.5446C29.3794 12.5583 29.3773 12.5716 29.3753 12.5847C29.2901 13.1223 29.0974 14.4115 29.0079 15.2675C28.9118 16.1879 28.8511 17.6459 29.0291 19.3214C26.7085 19.7682 25.2832 18.3016 24.8021 17.4553C24.2821 16.5403 24.1748 14.8008 24.3984 14.4586Z" fill="url(#paint12_radial_487_566)"/>
<path d="M24.3984 14.4586C24.3999 14.4607 24.4012 14.4626 24.4026 14.4646C24.5975 13.961 24.7386 13.3306 24.8001 12.7763C24.8007 12.7709 24.8014 12.7647 24.8021 12.7577C24.8291 12.5145 24.9612 11.3195 25.1437 10.7769C25.3699 10.1042 25.8363 9.52556 26.5375 9.29911C27.6787 8.93051 28.9186 9.6063 29.307 10.8085C29.3428 10.9193 29.37 11.0308 29.3893 11.142C29.5176 11.6917 29.4368 12.1987 29.3816 12.5446C29.3794 12.5583 29.3773 12.5716 29.3753 12.5847C29.2901 13.1223 29.0974 14.4115 29.0079 15.2675C28.9118 16.1879 28.8511 17.6459 29.0291 19.3214C26.7085 19.7682 25.2832 18.3016 24.8021 17.4553C24.2821 16.5403 24.1748 14.8008 24.3984 14.4586Z" fill="url(#paint13_radial_487_566)"/>
<path d="M24.3984 14.4586C24.3999 14.4607 24.4012 14.4626 24.4026 14.4646C24.5975 13.961 24.7386 13.3306 24.8001 12.7763C24.8007 12.7709 24.8014 12.7647 24.8021 12.7577C24.8291 12.5145 24.9612 11.3195 25.1437 10.7769C25.3699 10.1042 25.8363 9.52556 26.5375 9.29911C27.6787 8.93051 28.9186 9.6063 29.307 10.8085C29.3428 10.9193 29.37 11.0308 29.3893 11.142C29.5176 11.6917 29.4368 12.1987 29.3816 12.5446C29.3794 12.5583 29.3773 12.5716 29.3753 12.5847C29.2901 13.1223 29.0974 14.4115 29.0079 15.2675C28.9118 16.1879 28.8511 17.6459 29.0291 19.3214C26.7085 19.7682 25.2832 18.3016 24.8021 17.4553C24.2821 16.5403 24.1748 14.8008 24.3984 14.4586Z" fill="url(#paint14_radial_487_566)"/>
<path d="M28.7259 11.8487C29.105 11.6321 29.1612 11.0171 28.8515 10.4749C28.5417 9.93282 27.9834 9.6689 27.6043 9.88546C27.2253 10.102 27.169 10.7171 27.4788 11.2592C27.7885 11.8013 28.3469 12.0652 28.7259 11.8487Z" fill="url(#paint15_radial_487_566)"/>
<path d="M28.1661 19.211C25.4067 18.5212 24.6316 16.1556 24.5891 15.0591C24.11 15.272 23.5671 16.9593 23.9343 18.0931C24.6527 20.3108 26.9844 20.9782 27.6231 20.9996L28.1661 19.211Z" fill="#FCC8B3"/>
<path d="M24.7734 16.6066C24.7487 16.5696 24.727 16.5328 24.7085 16.4963C24.7304 16.5331 24.752 16.5698 24.7734 16.6066C25.2905 17.3823 27.1258 18.2646 28.2537 18.5085C28.7221 19.754 29.4993 25.471 26.05 27.7385C26.8526 26.334 27.4142 21.1478 24.7734 16.6066Z" fill="url(#paint16_radial_487_566)"/>
<path d="M13.6839 11.6452C14.4457 13.2814 15.3925 15.3184 16.5781 17.0767C16.7904 17.3915 17.1708 17.5514 17.5231 17.4098C18.1314 17.1652 18.9477 16.6639 19.615 15.8331C19.8587 15.5299 19.8508 15.1075 19.6608 14.7681C18.8002 13.2304 17.5733 10.5111 16.8007 7.7409C16.4606 7.03005 15.7347 6.53906 14.8941 6.53906C13.7274 6.53906 12.7817 7.48483 12.7817 8.65147C12.7817 8.76046 12.7899 8.86751 12.8059 8.97207C12.9131 9.67578 13.4425 11.0543 13.6839 11.6452Z" fill="url(#paint17_radial_487_566)"/>
<path d="M13.6839 11.6452C14.4457 13.2814 15.3925 15.3184 16.5781 17.0767C16.7904 17.3915 17.1708 17.5514 17.5231 17.4098C18.1314 17.1652 18.9477 16.6639 19.615 15.8331C19.8587 15.5299 19.8508 15.1075 19.6608 14.7681C18.8002 13.2304 17.5733 10.5111 16.8007 7.7409C16.4606 7.03005 15.7347 6.53906 14.8941 6.53906C13.7274 6.53906 12.7817 7.48483 12.7817 8.65147C12.7817 8.76046 12.7899 8.86751 12.8059 8.97207C12.9131 9.67578 13.4425 11.0543 13.6839 11.6452Z" fill="url(#paint18_radial_487_566)"/>
<path d="M13.6839 11.6452C14.4457 13.2814 15.3925 15.3184 16.5781 17.0767C16.7904 17.3915 17.1708 17.5514 17.5231 17.4098C18.1314 17.1652 18.9477 16.6639 19.615 15.8331C19.8587 15.5299 19.8508 15.1075 19.6608 14.7681C18.8002 13.2304 17.5733 10.5111 16.8007 7.7409C16.4606 7.03005 15.7347 6.53906 14.8941 6.53906C13.7274 6.53906 12.7817 7.48483 12.7817 8.65147C12.7817 8.76046 12.7899 8.86751 12.8059 8.97207C12.9131 9.67578 13.4425 11.0543 13.6839 11.6452Z" fill="url(#paint19_linear_487_566)"/>
<path d="M13.6839 11.6452C14.4457 13.2814 15.3925 15.3184 16.5781 17.0767C16.7904 17.3915 17.1708 17.5514 17.5231 17.4098C18.1314 17.1652 18.9477 16.6639 19.615 15.8331C19.8587 15.5299 19.8508 15.1075 19.6608 14.7681C18.8002 13.2304 17.5733 10.5111 16.8007 7.7409C16.4606 7.03005 15.7347 6.53906 14.8941 6.53906C13.7274 6.53906 12.7817 7.48483 12.7817 8.65147C12.7817 8.76046 12.7899 8.86751 12.8059 8.97207C12.9131 9.67578 13.4425 11.0543 13.6839 11.6452Z" fill="url(#paint20_radial_487_566)"/>
<path d="M11.1122 16.0732C10.9101 16.0089 10.6947 15.9742 10.4713 15.9742C9.30465 15.9742 8.35889 16.92 8.35889 18.0867C8.35889 18.565 8.51789 19.0062 8.78594 19.3603C9.81193 20.8964 11.5445 23.069 13.503 25.1721C15.9336 24.0336 15.7175 21.7187 15.303 21.2261C15.295 21.2488 13.2334 18.3755 12.2322 17.1037C12.2157 17.0828 12.1992 17.0617 12.1824 17.0403C11.872 16.6448 11.5009 16.1721 11.1184 16.0736C10.9711 15.8029 10.9697 15.7954 11.1122 16.0732Z" fill="url(#paint21_radial_487_566)"/>
<path d="M11.1122 16.0732C10.9101 16.0089 10.6947 15.9742 10.4713 15.9742C9.30465 15.9742 8.35889 16.92 8.35889 18.0867C8.35889 18.565 8.51789 19.0062 8.78594 19.3603C9.81193 20.8964 11.5445 23.069 13.503 25.1721C15.9336 24.0336 15.7175 21.7187 15.303 21.2261C15.295 21.2488 13.2334 18.3755 12.2322 17.1037C12.2157 17.0828 12.1992 17.0617 12.1824 17.0403C11.872 16.6448 11.5009 16.1721 11.1184 16.0736C10.9711 15.8029 10.9697 15.7954 11.1122 16.0732Z" fill="url(#paint22_radial_487_566)"/>
<path d="M14.2155 22.3771C14.1472 22.6509 14.3136 22.9283 14.5874 22.9968C14.8612 23.0652 15.1386 22.8988 15.2071 22.625L14.2155 22.3771ZM22.7949 15.7928C23.0764 15.7734 23.2889 15.5294 23.2695 15.2478C23.2501 14.9663 23.0061 14.7538 22.7246 14.7732L22.7949 15.7928ZM15.2071 22.625C15.5047 21.4342 16.3204 19.7864 17.6183 18.4028C18.911 17.0246 20.6502 15.9409 22.7949 15.7928L22.7246 14.7732C20.2572 14.9435 18.2916 16.1912 16.8728 17.7036C15.4591 19.2107 14.5567 21.0127 14.2155 22.3771L15.2071 22.625Z" fill="#F0BBA4"/>
<path d="M19.6304 6.85107C20.1734 9.18256 22.2014 13.0631 23.3831 14.8835" stroke="#FFE4C9" stroke-width="2.41749" stroke-linecap="round"/>
<path d="M20.9878 9.96533C21.3392 10.7851 22.1823 12.9388 23.3832 14.6762" stroke="url(#paint23_linear_487_566)" stroke-width="1.69224" stroke-linecap="round"/>
<path d="M20.6519 1.98462C22.4484 2.11237 25.3946 3.61744 25.2989 7.46598" stroke="#1B99E7" stroke-width="2.17574" stroke-linecap="round"/>
<path d="M20.6519 1.98462C22.4484 2.11237 25.3946 3.61744 25.2989 7.46598" stroke="url(#paint24_radial_487_566)" stroke-width="2.17574" stroke-linecap="round"/>
<path d="M18.4321 3.59741C20.2207 3.65729 23.5582 5.20629 23.4384 9.34226" stroke="#1B99E7" stroke-width="2.17574" stroke-linecap="round"/>
<path d="M18.4321 3.59741C20.2207 3.65729 23.5582 5.20629 23.4384 9.34226" stroke="url(#paint25_radial_487_566)" stroke-width="2.17574" stroke-linecap="round"/>
<path d="M3.85739 15.8501C3.65377 18.3733 5.07501 21.1838 8.6361 21.7746" stroke="url(#paint26_linear_487_566)" stroke-width="2.17574" stroke-linecap="round"/>
<path d="M3.85739 15.8501C3.65377 18.3733 5.07501 21.1838 8.6361 21.7746" stroke="url(#paint27_radial_487_566)" stroke-width="2.17574" stroke-linecap="round"/>
<path d="M1.9045 17.7581C1.66494 20.2811 3.3337 22.8522 6.46365 23.2753" stroke="url(#paint28_linear_487_566)" stroke-width="2.17574" stroke-linecap="round"/>
<path d="M1.9045 17.7581C1.66494 20.2811 3.3337 22.8522 6.46365 23.2753" stroke="url(#paint29_radial_487_566)" stroke-width="2.17574" stroke-linecap="round"/>
<path d="M14.4444 22.6954C13.0242 21.1374 11.6194 19.3434 10.8537 18.282C10.6302 17.9721 10.6973 17.5463 10.996 17.3082C11.3135 17.0553 11.7756 17.1064 12.03 17.4227L14.5881 20.6035C14.6009 21.5233 14.4977 22.3813 14.4444 22.6954Z" fill="#FFD6C0"/>
<defs>
<radialGradient id="paint0_radial_487_566" cx="0" cy="0" r="1" gradientUnits="userSpaceOnUse" gradientTransform="translate(23.5511 14.1123) rotate(99.3161) scale(17.1607 19.1575)">
<stop offset="0.81512" stop-color="#BA7D94" stop-opacity="0"/>
<stop offset="1" stop-color="#BA7D94"/>
</radialGradient>
<linearGradient id="paint1_linear_487_566" x1="14.4597" y1="22.4233" x2="10.7639" y2="25.349" gradientUnits="userSpaceOnUse">
<stop stop-color="#BA7D94" stop-opacity="0"/>
<stop offset="1" stop-color="#BA7D94"/>
</linearGradient>
<radialGradient id="paint2_radial_487_566" cx="0" cy="0" r="1" gradientUnits="userSpaceOnUse" gradientTransform="translate(23.1143 10.7722) rotate(156.037) scale(4.19239 8.80823)">
<stop offset="0.719134" stop-color="#E1A696" stop-opacity="0"/>
<stop offset="1" stop-color="#E1A696"/>
</radialGradient>
<radialGradient id="paint3_radial_487_566" cx="0" cy="0" r="1" gradientUnits="userSpaceOnUse" gradientTransform="translate(23.1143 10.7722) rotate(154.952) scale(5.264 13.2446)">
<stop offset="0.768664" stop-color="#DF9E84" stop-opacity="0"/>
<stop offset="1" stop-color="#DF9E84"/>
</radialGradient>
<linearGradient id="paint4_linear_487_566" x1="20.3801" y1="16.332" x2="19.9647" y2="14.1807" gradientUnits="userSpaceOnUse">
<stop stop-color="#F5BFAE"/>
<stop offset="1" stop-color="#F5BFAE" stop-opacity="0"/>
</linearGradient>
<radialGradient id="paint5_radial_487_566" cx="0" cy="0" r="1" gradientUnits="userSpaceOnUse" gradientTransform="translate(24.4285 14.4842) rotate(-127.591) scale(3.80892 0.814672)">
<stop stop-color="#C8947A"/>
<stop offset="1" stop-color="#C8947A" stop-opacity="0"/>
</radialGradient>
<radialGradient id="paint6_radial_487_566" cx="0" cy="0" r="1" gradientUnits="userSpaceOnUse" gradientTransform="translate(19.4151 5.29522) rotate(84.4626) scale(2.34249 2.92919)">
<stop stop-color="#E3B79C"/>
<stop offset="1" stop-color="#E3B79C" stop-opacity="0"/>
</radialGradient>
<radialGradient id="paint7_radial_487_566" cx="0" cy="0" r="1" gradientUnits="userSpaceOnUse" gradientTransform="translate(15.7021 15.2509) rotate(146.452) scale(3.58308 9.58973)">
<stop offset="0.425307" stop-color="#E2A693" stop-opacity="0"/>
<stop offset="1" stop-color="#E2A693"/>
</radialGradient>
<radialGradient id="paint8_radial_487_566" cx="0" cy="0" r="1" gradientUnits="userSpaceOnUse" gradientTransform="translate(15.7021 15.2509) rotate(147.829) scale(4.67867 12.522)">
<stop offset="0.624797" stop-color="#E09E7E" stop-opacity="0"/>
<stop offset="1" stop-color="#E09E7E"/>
</radialGradient>
<radialGradient id="paint9_radial_487_566" cx="0" cy="0" r="1" gradientUnits="userSpaceOnUse" gradientTransform="translate(12.3255 17.1764) rotate(-32.6806) scale(4.02217 25.4587)">
<stop offset="0.692182" stop-color="#D59271" stop-opacity="0"/>
<stop offset="1" stop-color="#D59271"/>
</radialGradient>
<linearGradient id="paint10_linear_487_566" x1="16.5644" y1="19.0834" x2="14.8078" y2="18.1573" gradientUnits="userSpaceOnUse">
<stop stop-color="#F5BFAE"/>
<stop offset="1" stop-color="#F5BFAE" stop-opacity="0"/>
</linearGradient>
<radialGradient id="paint11_radial_487_566" cx="0" cy="0" r="1" gradientUnits="userSpaceOnUse" gradientTransform="translate(12.4028 10.763) rotate(83.1268) scale(2.35333 2.77936)">
<stop stop-color="#DAAA90"/>
<stop offset="1" stop-color="#DAAA90" stop-opacity="0"/>
</radialGradient>
<radialGradient id="paint12_radial_487_566" cx="0" cy="0" r="1" gradientUnits="userSpaceOnUse" gradientTransform="translate(25.4748 17.6149) rotate(-77.6557) scale(5.37814 2.32149)">
<stop stop-color="#EBB5A5"/>
<stop offset="1" stop-color="#EBB5A5" stop-opacity="0"/>
</radialGradient>
<radialGradient id="paint13_radial_487_566" cx="0" cy="0" r="1" gradientUnits="userSpaceOnUse" gradientTransform="translate(24.7403 11.1954) rotate(5.44849) scale(0.997596 3.61192)">
<stop stop-color="#D3987E"/>
<stop offset="1" stop-color="#D3987E" stop-opacity="0"/>
</radialGradient>
<radialGradient id="paint14_radial_487_566" cx="0" cy="0" r="1" gradientUnits="userSpaceOnUse" gradientTransform="translate(25.7493 8.67121) rotate(58.3163) scale(2.13931 7.74564)">
<stop stop-color="#D3987E"/>
<stop offset="1" stop-color="#D3987E" stop-opacity="0"/>
</radialGradient>
<radialGradient id="paint15_radial_487_566" cx="0" cy="0" r="1" gradientUnits="userSpaceOnUse" gradientTransform="translate(28.7166 10.5558) rotate(137.305) scale(1.78224 2.47506)">
<stop stop-color="#FFE2C7"/>
<stop offset="1" stop-color="#FFE2C7" stop-opacity="0"/>
</radialGradient>
<radialGradient id="paint16_radial_487_566" cx="0" cy="0" r="1" gradientUnits="userSpaceOnUse" gradientTransform="translate(29.5312 18.764) rotate(113.948) scale(12.5108 6.2538)">
<stop stop-color="#FFE2C8"/>
<stop offset="1" stop-color="#FFE2C8" stop-opacity="0"/>
</radialGradient>
<radialGradient id="paint17_radial_487_566" cx="0" cy="0" r="1" gradientUnits="userSpaceOnUse" gradientTransform="translate(18.7395 12.0609) rotate(149.999) scale(4.41872 10.459)">
<stop offset="0.655467" stop-color="#E2A085" stop-opacity="0"/>
<stop offset="1" stop-color="#E2A085"/>
</radialGradient>
<radialGradient id="paint18_radial_487_566" cx="0" cy="0" r="1" gradientUnits="userSpaceOnUse" gradientTransform="translate(18.6278 12.0609) rotate(155.961) scale(1.71359 10.8444)">
<stop stop-color="#E1A086"/>
<stop offset="1" stop-color="#E1A086" stop-opacity="0"/>
</radialGradient>
<linearGradient id="paint19_linear_487_566" x1="17.427" y1="17.6624" x2="16.5487" y2="14.9637" gradientUnits="userSpaceOnUse">
<stop stop-color="#F5BFAE"/>
<stop offset="1" stop-color="#F5BFAE" stop-opacity="0"/>
</linearGradient>
<radialGradient id="paint20_radial_487_566" cx="0" cy="0" r="1" gradientUnits="userSpaceOnUse" gradientTransform="translate(15.1683 6.12603) rotate(83.5812) scale(2.57116 2.83935)">
<stop stop-color="#DDAD92"/>
<stop offset="1" stop-color="#DDAD92" stop-opacity="0"/>
</radialGradient>
<radialGradient id="paint21_radial_487_566" cx="0" cy="0" r="1" gradientUnits="userSpaceOnUse" gradientTransform="translate(14.0087 18.2533) rotate(140.042) scale(1.54165 5.22706)">
<stop stop-color="#F2B69C"/>
<stop offset="1" stop-color="#F2B69C" stop-opacity="0"/>
</radialGradient>
<radialGradient id="paint22_radial_487_566" cx="0" cy="0" r="1" gradientUnits="userSpaceOnUse" gradientTransform="translate(10.746 15.5197) rotate(82.3929) scale(2.17179 2.83268)">
<stop stop-color="#DCA990"/>
<stop offset="1" stop-color="#DCA990" stop-opacity="0"/>
</radialGradient>
<linearGradient id="paint23_linear_487_566" x1="23.3991" y1="14.4207" x2="20.876" y2="9.9174" gradientUnits="userSpaceOnUse">
<stop stop-color="#FDCCB8"/>
<stop offset="1" stop-color="#FDCCB8" stop-opacity="0"/>
</linearGradient>
<radialGradient id="paint24_radial_487_566" cx="0" cy="0" r="1" gradientUnits="userSpaceOnUse" gradientTransform="translate(22.728 4.88698) rotate(-44.7092) scale(2.22451 5.69157)">
<stop stop-color="#16579C"/>
<stop offset="0.743739" stop-color="#16579C" stop-opacity="0"/>
</radialGradient>
<radialGradient id="paint25_radial_487_566" cx="0" cy="0" r="1" gradientUnits="userSpaceOnUse" gradientTransform="translate(20.6691 6.6393) rotate(-43.9169) scale(2.3647 6.04624)">
<stop stop-color="#16579C"/>
<stop offset="0.861756" stop-color="#16579C" stop-opacity="0"/>
</radialGradient>
<linearGradient id="paint26_linear_487_566" x1="4.97136" y1="15.8501" x2="8.22904" y2="22.6289" gradientUnits="userSpaceOnUse">
<stop stop-color="#1679C5"/>
<stop offset="1" stop-color="#0D5194"/>
</linearGradient>
<radialGradient id="paint27_radial_487_566" cx="0" cy="0" r="1" gradientUnits="userSpaceOnUse" gradientTransform="translate(5.68996 18.5249) rotate(164.814) scale(2.31656 6.22775)">
<stop offset="0.705955" stop-color="#0E5196" stop-opacity="0"/>
<stop offset="1" stop-color="#0E5196"/>
</radialGradient>
<linearGradient id="paint28_linear_487_566" x1="2.96384" y1="17.7581" x2="6.78776" y2="26.0572" gradientUnits="userSpaceOnUse">
<stop offset="0.297941" stop-color="#1679C5"/>
<stop offset="1" stop-color="#0D5194"/>
</linearGradient>
<radialGradient id="paint29_radial_487_566" cx="0" cy="0" r="1" gradientUnits="userSpaceOnUse" gradientTransform="translate(3.65011 20.249) rotate(165.175) scale(2.20857 5.80948)">
<stop offset="0.705955" stop-color="#0E5196" stop-opacity="0"/>
<stop offset="1" stop-color="#0E5196"/>
</radialGradient>
</defs>
</svg>
