<svg width="30" height="30" viewBox="0 0 30 30" fill="none" xmlns="http://www.w3.org/2000/svg">
<mask id="mask0_487_564" style="mask-type:luminance" maskUnits="userSpaceOnUse" x="0" y="0" width="30" height="30">
<path d="M0.962402 0.0834961H29.9172V29.0383H0.962402V0.0834961Z" fill="white"/>
</mask>
<g mask="url(#mask0_487_564)">
<path d="M10.5382 12.4959C11.6245 12.0961 12.6806 13.1522 12.2808 14.2384L9.91121 20.6758C9.68306 21.2956 8.88927 21.4701 8.42225 21.003L3.77365 16.3544C3.30664 15.8874 3.4811 15.0936 4.1009 14.8655L10.5382 12.4959Z" fill="url(#paint0_linear_487_564)"/>
<path d="M10.5382 12.4959C11.6245 12.0961 12.6806 13.1522 12.2808 14.2384L9.91121 20.6758C9.68306 21.2956 8.88927 21.4701 8.42225 21.003L3.77365 16.3544C3.30664 15.8874 3.4811 15.0936 4.1009 14.8655L10.5382 12.4959Z" fill="url(#paint1_radial_487_564)"/>
<path d="M10.5382 12.4959C11.6245 12.0961 12.6806 13.1522 12.2808 14.2384L9.91121 20.6758C9.68306 21.2956 8.88927 21.4701 8.42225 21.003L3.77365 16.3544C3.30664 15.8874 3.4811 15.0936 4.1009 14.8655L10.5382 12.4959Z" fill="url(#paint2_linear_487_564)"/>
<path d="M15.9669 17.9249C17.0532 17.525 18.1093 18.5811 17.7095 19.6674L15.3399 26.1048C15.1118 26.7246 14.318 26.899 13.851 26.432L9.20236 21.7834C8.73535 21.3164 8.90981 20.5226 9.52961 20.2945L15.9669 17.9249Z" fill="url(#paint3_linear_487_564)"/>
<path d="M15.9669 17.9249C17.0532 17.525 18.1093 18.5811 17.7095 19.6674L15.3399 26.1048C15.1118 26.7246 14.318 26.899 13.851 26.432L9.20236 21.7834C8.73535 21.3164 8.90981 20.5226 9.52961 20.2945L15.9669 17.9249Z" fill="url(#paint4_radial_487_564)"/>
<path d="M15.9669 17.9249C17.0532 17.525 18.1093 18.5811 17.7095 19.6674L15.3399 26.1048C15.1118 26.7246 14.318 26.899 13.851 26.432L9.20236 21.7834C8.73535 21.3164 8.90981 20.5226 9.52961 20.2945L15.9669 17.9249Z" fill="url(#paint5_radial_487_564)"/>
<path d="M21.2308 3.29632C21.2814 3.27573 21.3392 3.28775 21.3777 3.32654L26.7035 8.6925C26.7418 8.73105 26.7535 8.78853 26.733 8.83884C25.4578 11.9691 23.6995 15.2989 21.3452 17.6533C19.0525 19.9459 15.1746 21.9 11.6732 23.3368L6.7041 18.3678C8.141 14.8664 10.095 10.9885 12.3877 8.6958C14.7493 6.33428 18.0922 4.57252 21.2308 3.29632Z" fill="url(#paint6_linear_487_564)"/>
<path d="M21.2308 3.29632C21.2814 3.27573 21.3392 3.28775 21.3777 3.32654L26.7035 8.6925C26.7418 8.73105 26.7535 8.78853 26.733 8.83884C25.4578 11.9691 23.6995 15.2989 21.3452 17.6533C19.0525 19.9459 15.1746 21.9 11.6732 23.3368L6.7041 18.3678C8.141 14.8664 10.095 10.9885 12.3877 8.6958C14.7493 6.33428 18.0922 4.57252 21.2308 3.29632Z" fill="url(#paint7_radial_487_564)"/>
<path d="M21.2308 3.29632C21.2814 3.27573 21.3392 3.28775 21.3777 3.32654L26.7035 8.6925C26.7418 8.73105 26.7535 8.78853 26.733 8.83884C25.4578 11.9691 23.6995 15.2989 21.3452 17.6533C19.0525 19.9459 15.1746 21.9 11.6732 23.3368L6.7041 18.3678C8.141 14.8664 10.095 10.9885 12.3877 8.6958C14.7493 6.33428 18.0922 4.57252 21.2308 3.29632Z" fill="url(#paint8_radial_487_564)"/>
<path d="M21.2308 3.29632C21.2814 3.27573 21.3392 3.28775 21.3777 3.32654L26.7035 8.6925C26.7418 8.73105 26.7535 8.78853 26.733 8.83884C25.4578 11.9691 23.6995 15.2989 21.3452 17.6533C19.0525 19.9459 15.1746 21.9 11.6732 23.3368L6.7041 18.3678C8.141 14.8664 10.095 10.9885 12.3877 8.6958C14.7493 6.33428 18.0922 4.57252 21.2308 3.29632Z" fill="url(#paint9_radial_487_564)"/>
<path d="M21.2308 3.29632C21.2814 3.27573 21.3392 3.28775 21.3777 3.32654L26.7035 8.6925C26.7418 8.73105 26.7535 8.78853 26.733 8.83884C25.4578 11.9691 23.6995 15.2989 21.3452 17.6533C19.0525 19.9459 15.1746 21.9 11.6732 23.3368L6.7041 18.3678C8.141 14.8664 10.095 10.9885 12.3877 8.6958C14.7493 6.33428 18.0922 4.57252 21.2308 3.29632Z" fill="url(#paint10_radial_487_564)"/>
<path d="M23.1316 10.0932C23.1316 11.7719 21.7707 13.1329 20.0919 13.1329C18.4131 13.1329 17.0522 11.7719 17.0522 10.0932C17.0522 8.41439 18.4131 7.05347 20.0919 7.05347C21.7707 7.05347 23.1316 8.41439 23.1316 10.0932Z" fill="url(#paint11_linear_487_564)"/>
<path d="M23.1316 10.0932C23.1316 11.7719 21.7707 13.1329 20.0919 13.1329C18.4131 13.1329 17.0522 11.7719 17.0522 10.0932C17.0522 8.41439 18.4131 7.05347 20.0919 7.05347C21.7707 7.05347 23.1316 8.41439 23.1316 10.0932Z" fill="url(#paint12_radial_487_564)"/>
<path d="M22.1966 10.0929C22.1966 11.2552 21.2544 12.1973 20.0922 12.1973C18.93 12.1973 17.9878 11.2552 17.9878 10.0929C17.9878 8.93071 18.93 7.98853 20.0922 7.98853C21.2544 7.98853 22.1966 8.93071 22.1966 10.0929Z" fill="url(#paint13_radial_487_564)"/>
<path d="M3.15541 26.8059C2.51559 26.1661 2.77227 21.7289 5.03435 20.8241C5.03435 20.8241 7.29645 19.9193 8.75415 21.3675C10.2118 22.8158 9.55854 24.4435 9.55854 24.4435C8.91874 26.3629 6.19486 27.1258 5.87496 26.806C5.69828 26.6293 6.01644 26.3076 5.87497 26.1662C5.7335 26.0247 5.51506 26.1862 4.91525 26.486C4.4887 26.6993 3.41133 27.0619 3.15541 26.8059Z" fill="url(#paint14_radial_487_564)"/>
<path d="M3.15541 26.8059C2.51559 26.1661 2.77227 21.7289 5.03435 20.8241C5.03435 20.8241 7.29645 19.9193 8.75415 21.3675C10.2118 22.8158 9.55854 24.4435 9.55854 24.4435C8.91874 26.3629 6.19486 27.1258 5.87496 26.806C5.69828 26.6293 6.01644 26.3076 5.87497 26.1662C5.7335 26.0247 5.51506 26.1862 4.91525 26.486C4.4887 26.6993 3.41133 27.0619 3.15541 26.8059Z" fill="url(#paint15_radial_487_564)"/>
<path d="M6.44733 19.0692C6.97738 18.5391 7.83675 18.5391 8.36679 19.0692L11.5659 22.2682C12.0959 22.7983 12.0959 23.6577 11.5659 24.1877C11.0358 24.7178 10.1765 24.7178 9.64642 24.1877L6.44733 20.9886C5.9173 20.4586 5.9173 19.5992 6.44733 19.0692Z" fill="url(#paint16_linear_487_564)"/>
<path d="M6.44733 19.0692C6.97738 18.5391 7.83675 18.5391 8.36679 19.0692L11.5659 22.2682C12.0959 22.7983 12.0959 23.6577 11.5659 24.1877C11.0358 24.7178 10.1765 24.7178 9.64642 24.1877L6.44733 20.9886C5.9173 20.4586 5.9173 19.5992 6.44733 19.0692Z" fill="url(#paint17_radial_487_564)"/>
<path d="M6.44733 19.0692C6.97738 18.5391 7.83675 18.5391 8.36679 19.0692L11.5659 22.2682C12.0959 22.7983 12.0959 23.6577 11.5659 24.1877C11.0358 24.7178 10.1765 24.7178 9.64642 24.1877L6.44733 20.9886C5.9173 20.4586 5.9173 19.5992 6.44733 19.0692Z" fill="url(#paint18_radial_487_564)"/>
<path d="M27.3598 2.68172C26.5028 1.82476 24.9999 1.92177 23.9047 2.29784C23.1184 2.56786 22.292 2.87072 21.4488 3.20866C21.3887 3.23272 21.3728 3.31024 21.4184 3.35614L26.6746 8.64842C26.7203 8.69449 26.7983 8.67877 26.8225 8.61852C27.1646 7.76633 27.4709 6.9311 27.7437 6.13675C28.1147 5.0562 28.4131 3.73506 27.3598 2.68172Z" fill="url(#paint19_linear_487_564)"/>
<path d="M27.3598 2.68172C26.5028 1.82476 24.9999 1.92177 23.9047 2.29784C23.1184 2.56786 22.292 2.87072 21.4488 3.20866C21.3887 3.23272 21.3728 3.31024 21.4184 3.35614L26.6746 8.64842C26.7203 8.69449 26.7983 8.67877 26.8225 8.61852C27.1646 7.76633 27.4709 6.9311 27.7437 6.13675C28.1147 5.0562 28.4131 3.73506 27.3598 2.68172Z" fill="url(#paint20_radial_487_564)"/>
<path d="M27.3598 2.68172C26.5028 1.82476 24.9999 1.92177 23.9047 2.29784C23.1184 2.56786 22.292 2.87072 21.4488 3.20866C21.3887 3.23272 21.3728 3.31024 21.4184 3.35614L26.6746 8.64842C26.7203 8.69449 26.7983 8.67877 26.8225 8.61852C27.1646 7.76633 27.4709 6.9311 27.7437 6.13675C28.1147 5.0562 28.4131 3.73506 27.3598 2.68172Z" fill="url(#paint21_linear_487_564)"/>
<path d="M13.2526 15.2105C14.3388 14.8107 15.395 15.8668 14.9951 16.953L12.6255 23.3904C12.3974 24.0102 11.6036 24.1847 11.1366 23.7176L6.48801 19.069C6.02099 18.602 6.19546 17.8082 6.81525 17.5801L13.2526 15.2105Z" fill="url(#paint22_linear_487_564)"/>
<path d="M13.2526 15.2105C14.3388 14.8107 15.395 15.8668 14.9951 16.953L12.6255 23.3904C12.3974 24.0102 11.6036 24.1847 11.1366 23.7176L6.48801 19.069C6.02099 18.602 6.19546 17.8082 6.81525 17.5801L13.2526 15.2105Z" fill="url(#paint23_radial_487_564)"/>
<path d="M13.2526 15.2105C14.3388 14.8107 15.395 15.8668 14.9951 16.953L12.6255 23.3904C12.3974 24.0102 11.6036 24.1847 11.1366 23.7176L6.48801 19.069C6.02099 18.602 6.19546 17.8082 6.81525 17.5801L13.2526 15.2105Z" fill="url(#paint24_radial_487_564)"/>
<path d="M13.2526 15.2105C14.3388 14.8107 15.395 15.8668 14.9951 16.953L12.6255 23.3904C12.3974 24.0102 11.6036 24.1847 11.1366 23.7176L6.48801 19.069C6.02099 18.602 6.19546 17.8082 6.81525 17.5801L13.2526 15.2105Z" fill="url(#paint25_radial_487_564)"/>
<path d="M9.29248 20.0324L14.3822 16.0454L11.1022 21.8703L9.29248 20.0324Z" fill="url(#paint26_linear_487_564)"/>
</g>
<defs>
<linearGradient id="paint0_linear_487_564" x1="8.30274" y1="15.7443" x2="3.77855" y2="14.999" gradientUnits="userSpaceOnUse">
<stop stop-color="#EE2452"/>
<stop offset="1" stop-color="#F63E7A"/>
</linearGradient>
<radialGradient id="paint1_radial_487_564" cx="0" cy="0" r="1" gradientUnits="userSpaceOnUse" gradientTransform="translate(3.13308 15.5228) rotate(-19.9576) scale(7.24023 1.23099)">
<stop offset="0.163866" stop-color="#FF8DB0"/>
<stop offset="1" stop-color="#FF8DB0" stop-opacity="0"/>
</radialGradient>
<linearGradient id="paint2_linear_487_564" x1="5.4017" y1="17.9388" x2="6.13939" y2="17.2195" gradientUnits="userSpaceOnUse">
<stop offset="0.491189" stop-color="#DD467C"/>
<stop offset="1" stop-color="#DD467C" stop-opacity="0"/>
</linearGradient>
<linearGradient id="paint3_linear_487_564" x1="17.1528" y1="19.6928" x2="11.5266" y2="24.1077" gradientUnits="userSpaceOnUse">
<stop stop-color="#F83267"/>
<stop offset="1" stop-color="#FF3190"/>
</linearGradient>
<radialGradient id="paint4_radial_487_564" cx="0" cy="0" r="1" gradientUnits="userSpaceOnUse" gradientTransform="translate(14.1555 20.1735) rotate(86.482) scale(6.91212 5.95932)">
<stop offset="0.756562" stop-color="#E76CBE" stop-opacity="0"/>
<stop offset="0.951296" stop-color="#E76CBE"/>
</radialGradient>
<radialGradient id="paint5_radial_487_564" cx="0" cy="0" r="1" gradientUnits="userSpaceOnUse" gradientTransform="translate(13.1376 23.8211) rotate(-57.3464) scale(4.76896 2.09476)">
<stop stop-color="#FF5898"/>
<stop offset="1" stop-color="#FF5898" stop-opacity="0"/>
</radialGradient>
<linearGradient id="paint6_linear_487_564" x1="13.1658" y1="7.92979" x2="21.1397" y2="15.9602" gradientUnits="userSpaceOnUse">
<stop stop-color="#CCBBC0"/>
<stop offset="1" stop-color="#EAD2EC"/>
</linearGradient>
<radialGradient id="paint7_radial_487_564" cx="0" cy="0" r="1" gradientUnits="userSpaceOnUse" gradientTransform="translate(22.6517 19.6071) rotate(-142.447) scale(15.0899 28.3651)">
<stop offset="0.811143" stop-color="#E7E5E5" stop-opacity="0"/>
<stop offset="1" stop-color="#E7E5E5"/>
</radialGradient>
<radialGradient id="paint8_radial_487_564" cx="0" cy="0" r="1" gradientUnits="userSpaceOnUse" gradientTransform="translate(9.27089 19.365) rotate(-56.9293) scale(8.87086 4.16922)">
<stop offset="0.281006" stop-color="#B5A3A5"/>
<stop offset="1" stop-color="#B5A3A5" stop-opacity="0"/>
</radialGradient>
<radialGradient id="paint9_radial_487_564" cx="0" cy="0" r="1" gradientUnits="userSpaceOnUse" gradientTransform="translate(6.7041 18.2624) rotate(-73.625) scale(7.86412 1.33256)">
<stop offset="0.207885" stop-color="#B28F96"/>
<stop offset="1" stop-color="#B28F96" stop-opacity="0"/>
</radialGradient>
<radialGradient id="paint10_radial_487_564" cx="0" cy="0" r="1" gradientUnits="userSpaceOnUse" gradientTransform="translate(25.4942 6.51599) rotate(137.284) scale(11.9212 3.70141)">
<stop stop-color="#FAECF1"/>
<stop offset="1" stop-color="#FAECF1" stop-opacity="0"/>
</radialGradient>
<linearGradient id="paint11_linear_487_564" x1="17.0522" y1="9.57643" x2="23.1316" y2="10.0932" gradientUnits="userSpaceOnUse">
<stop stop-color="#A796A0"/>
<stop offset="1" stop-color="#A5959F"/>
</linearGradient>
<radialGradient id="paint12_radial_487_564" cx="0" cy="0" r="1" gradientUnits="userSpaceOnUse" gradientTransform="translate(20.0919 10.0932) rotate(90) scale(3.0397)">
<stop offset="0.586538" stop-color="#93859B"/>
<stop offset="1" stop-color="#93859B" stop-opacity="0"/>
</radialGradient>
<radialGradient id="paint13_radial_487_564" cx="0" cy="0" r="1" gradientUnits="userSpaceOnUse" gradientTransform="translate(20.0922 12.1973) rotate(-90) scale(4.38448 4.0322)">
<stop stop-color="#72CDFF"/>
<stop offset="0.738019" stop-color="#66ACFF"/>
<stop offset="1" stop-color="#3B57F4"/>
</radialGradient>
<radialGradient id="paint14_radial_487_564" cx="0" cy="0" r="1" gradientUnits="userSpaceOnUse" gradientTransform="translate(8.37423 22.0222) rotate(135) scale(5.2539 4.12969)">
<stop stop-color="#D46213"/>
<stop offset="1" stop-color="#FF9542"/>
</radialGradient>
<radialGradient id="paint15_radial_487_564" cx="0" cy="0" r="1" gradientUnits="userSpaceOnUse" gradientTransform="translate(8.47601 26.2971) rotate(-131.186) scale(6.49179 6.84127)">
<stop offset="0.870944" stop-color="#FFC484" stop-opacity="0"/>
<stop offset="1" stop-color="#FFC484"/>
</radialGradient>
<linearGradient id="paint16_linear_487_564" x1="6.21004" y1="19.9474" x2="11.1866" y2="24.8392" gradientUnits="userSpaceOnUse">
<stop stop-color="#452860"/>
<stop offset="1" stop-color="#51509F"/>
</linearGradient>
<radialGradient id="paint17_radial_487_564" cx="0" cy="0" r="1" gradientUnits="userSpaceOnUse" gradientTransform="translate(7.14315 19.495) rotate(77.8285) scale(1.47525 1.30342)">
<stop stop-color="#8E839A"/>
<stop offset="1" stop-color="#8E839A" stop-opacity="0"/>
</radialGradient>
<radialGradient id="paint18_radial_487_564" cx="0" cy="0" r="1" gradientUnits="userSpaceOnUse" gradientTransform="translate(7.48448 20.3681) rotate(47.9357) scale(5.62113 2.94649)">
<stop offset="0.860492" stop-color="#6175B9" stop-opacity="0"/>
<stop offset="1" stop-color="#6175B9"/>
</radialGradient>
<linearGradient id="paint19_linear_487_564" x1="27.3637" y1="2.68569" x2="24.0375" y2="6.01195" gradientUnits="userSpaceOnUse">
<stop stop-color="#FF3745"/>
<stop offset="1" stop-color="#ED224B"/>
</linearGradient>
<radialGradient id="paint20_radial_487_564" cx="0" cy="0" r="1" gradientUnits="userSpaceOnUse" gradientTransform="translate(26.9672 4.01721) rotate(135) scale(7.46199 1.79131)">
<stop offset="0.189394" stop-color="#FF5971"/>
<stop offset="1" stop-color="#FF5971" stop-opacity="0"/>
</radialGradient>
<linearGradient id="paint21_linear_487_564" x1="24.3281" y1="6.23347" x2="24.6603" y2="5.88708" gradientUnits="userSpaceOnUse">
<stop stop-color="#D2575E"/>
<stop offset="1" stop-color="#F93251" stop-opacity="0"/>
</linearGradient>
<linearGradient id="paint22_linear_487_564" x1="14.6811" y1="15.5245" x2="8.8123" y2="21.3934" gradientUnits="userSpaceOnUse">
<stop stop-color="#FF2644"/>
<stop offset="1" stop-color="#FF2982"/>
</linearGradient>
<radialGradient id="paint23_radial_487_564" cx="0" cy="0" r="1" gradientUnits="userSpaceOnUse" gradientTransform="translate(6.60601 17.6571) rotate(-20.8651) scale(6.74812 1.7666)">
<stop stop-color="#FF95AF"/>
<stop offset="1" stop-color="#FF95AF" stop-opacity="0"/>
</radialGradient>
<radialGradient id="paint24_radial_487_564" cx="0" cy="0" r="1" gradientUnits="userSpaceOnUse" gradientTransform="translate(5.84744 18.4589) rotate(44.7044) scale(4.17149 1.23223)">
<stop offset="0.381871" stop-color="#E14678"/>
<stop offset="1" stop-color="#E14678" stop-opacity="0"/>
</radialGradient>
<radialGradient id="paint25_radial_487_564" cx="0" cy="0" r="1" gradientUnits="userSpaceOnUse" gradientTransform="translate(11.4412 17.4026) rotate(84.6743) scale(6.70212 7.14208)">
<stop offset="0.831791" stop-color="#E67BC7" stop-opacity="0"/>
<stop offset="1" stop-color="#E67BC7"/>
</radialGradient>
<linearGradient id="paint26_linear_487_564" x1="13.6187" y1="16.4696" x2="9.88628" y2="20.3717" gradientUnits="userSpaceOnUse">
<stop stop-color="#FF5970"/>
<stop offset="1" stop-color="#FF5794"/>
</linearGradient>
</defs>
</svg>
