<svg width="18" height="12" viewBox="0 0 18 12" fill="none" xmlns="http://www.w3.org/2000/svg">
<path d="M9.95347 7.54782C9.89255 7.57398 9.82946 7.57489 9.76422 7.55055C9.69899 7.52622 9.65329 7.48358 9.62713 7.42265L8.87507 5.82416L8.31128 6.52058C8.24903 6.59674 8.17245 6.6186 8.08155 6.58615C7.99064 6.55369 7.94519 6.4873 7.94519 6.38696V3.56354C7.94519 3.47446 7.98476 3.41196 8.06391 3.37603C8.14306 3.3401 8.21723 3.34813 8.28645 3.40012L10.5406 5.25292C10.6168 5.31684 10.6382 5.39466 10.6049 5.48639C10.5717 5.57812 10.5057 5.62398 10.407 5.62398H9.32262L10.0722 7.22148C10.0984 7.28241 10.1003 7.34549 10.0782 7.41073C10.056 7.47597 10.0144 7.52166 9.95347 7.54782Z" fill="white"/>
<path d="M2.00083 11.9546C1.67058 11.9546 1.38693 11.8361 1.14988 11.599C0.912834 11.362 0.794312 11.0783 0.794312 10.7481H3.60485C3.232 10.7481 2.91641 10.6189 2.65807 10.3606C2.39973 10.1022 2.27056 9.78663 2.27056 9.41379V1.3797C2.27056 1.00686 2.39973 0.691261 2.65807 0.432921C2.91641 0.17458 3.232 0.0454102 3.60485 0.0454102H14.9604C15.3333 0.0454102 15.6489 0.17458 15.9072 0.432921C16.1655 0.691261 16.2947 1.00686 16.2947 1.3797V9.41379C16.2947 9.78663 16.1655 10.1022 15.9072 10.3606C15.6489 10.6189 15.3333 10.7481 14.9604 10.7481H17.7709C17.7709 11.0783 17.6524 11.362 17.4154 11.599C17.1783 11.8361 16.8947 11.9546 16.5644 11.9546H2.00083ZM9.28262 11.401C9.44916 11.401 9.59016 11.3433 9.70561 11.2278C9.82106 11.1124 9.87878 10.9714 9.87878 10.8048C9.87878 10.6383 9.82106 10.4973 9.70561 10.3819C9.59016 10.2664 9.44916 10.2087 9.28262 10.2087C9.11608 10.2087 8.97508 10.2664 8.85962 10.3819C8.74418 10.4973 8.68646 10.6383 8.68646 10.8048C8.68646 10.9714 8.74418 11.1124 8.85962 11.2278C8.97508 11.3433 9.11608 11.401 9.28262 11.401ZM3.60483 9.64091H14.9604C15.0172 9.64091 15.0692 9.61726 15.1166 9.56994C15.1639 9.52263 15.1875 9.47058 15.1875 9.41379V1.3797C15.1875 1.32292 15.1639 1.27086 15.1166 1.22354C15.0692 1.17622 15.0172 1.15257 14.9604 1.15257H3.60483C3.54805 1.15257 3.49599 1.17622 3.44867 1.22354C3.40135 1.27086 3.3777 1.32292 3.3777 1.3797V9.41379C3.3777 9.47058 3.40135 9.52263 3.44867 9.56994C3.49599 9.61726 3.54805 9.64091 3.60483 9.64091Z" fill="white"/>
</svg>
