<svg width="745" height="408" viewBox="0 0 745 408" fill="none" xmlns="http://www.w3.org/2000/svg">
<g clip-path="url(#clip0_589_252)">
<rect x="84.137" y="81.1338" width="515.75" height="320.939" rx="24.9758" transform="rotate(-5.41304 84.137 81.1338)" fill="white"/>
<path d="M86.493 105.998C85.1918 92.266 95.2691 80.0789 109.001 78.7777L572.723 34.8367C586.455 33.5354 598.642 43.6128 599.943 57.345L601.575 74.5637L88.1246 123.217L86.493 105.998Z" fill="black"/>
<circle cx="118.224" cy="99.1343" r="6.24395" transform="rotate(-5.41304 118.224 99.1343)" fill="#FF4D5B"/>
<circle cx="145.56" cy="96.5441" r="6.24395" transform="rotate(-5.41304 145.56 96.5441)" fill="#FFC60B"/>
<circle cx="172.895" cy="93.9538" r="6.24395" transform="rotate(-5.41304 172.895 93.9538)" fill="#00D47B"/>
<path d="M338.729 154.838C338.909 156.733 338.754 158.387 338.266 159.8C337.776 161.203 336.888 162.332 335.602 163.187C334.326 164.031 332.586 164.557 330.383 164.765C328.18 164.974 326.366 164.779 324.942 164.181C323.528 163.57 322.453 162.605 321.717 161.285C320.979 159.954 320.518 158.309 320.332 156.348L318.916 141.409L323.031 141.019L324.486 156.371C324.661 158.222 325.242 159.545 326.229 160.341C327.227 161.135 328.502 161.459 330.056 161.312C331.102 161.213 331.993 160.934 332.727 160.475C333.462 160.016 334.001 159.371 334.345 158.538C334.687 157.694 334.799 156.65 334.681 155.405L333.227 140.053L337.292 139.668L338.729 154.838ZM346.691 145.647L348.31 162.733L344.443 163.1L342.824 146.013L346.691 145.647ZM346.097 138.85L346.457 142.651L342.474 143.029L342.114 139.228L346.097 138.85ZM351.385 163.359L357.347 137.768L360.272 137.491L354.294 163.083L351.385 163.359ZM383.462 150.599C383.641 152.494 383.487 154.148 382.998 155.561C382.509 156.964 381.621 158.093 380.335 158.948C379.059 159.792 377.319 160.318 375.116 160.527C372.912 160.735 371.099 160.541 369.675 159.942C368.261 159.331 367.186 158.366 366.449 157.046C365.712 155.716 365.25 154.07 365.065 152.109L363.649 137.171L367.764 136.781L369.218 152.132C369.394 153.983 369.975 155.306 370.962 156.102C371.96 156.896 373.235 157.22 374.788 157.073C375.835 156.974 376.726 156.695 377.46 156.236C378.195 155.778 378.734 155.132 379.077 154.299C379.42 153.455 379.532 152.411 379.414 151.166L377.959 135.815L382.024 135.429L383.462 150.599ZM404.891 157.372L400.627 157.776L395.556 152.121L391.654 158.626L387.391 159.03L393.109 149.518L386.317 141.892L390.581 141.488L395.036 146.451L398.479 140.739L402.759 140.334L397.471 149.105L404.891 157.372Z" fill="black"/>
<path d="M226.878 196.291L228.497 213.377L224.63 213.744L223.011 196.657L226.878 196.291ZM226.284 189.495L226.644 193.295L222.661 193.673L222.301 189.872L226.284 189.495ZM239.813 212.639C238.623 212.751 237.476 212.671 236.372 212.398C235.278 212.112 234.329 211.597 233.525 210.85C232.731 210.103 232.18 209.094 231.87 207.822L235.407 207.487C235.62 208.101 235.939 208.587 236.362 208.947C236.796 209.306 237.292 209.554 237.85 209.69C238.406 209.815 238.965 209.851 239.527 209.798C240.552 209.701 241.361 209.446 241.956 209.034C242.561 208.621 242.829 208.046 242.759 207.308C242.708 206.768 242.491 206.355 242.108 206.069C241.725 205.783 241.141 205.593 240.354 205.501L237.028 205.066C235.555 204.883 234.342 204.465 233.391 203.81C232.451 203.155 231.911 202.155 231.773 200.812C231.666 199.8 231.834 198.872 232.276 198.03C232.719 197.188 233.431 196.492 234.413 195.944C235.394 195.384 236.639 195.033 238.148 194.89C240.142 194.701 241.781 194.995 243.067 195.774C244.351 196.541 245.088 197.744 245.276 199.383L241.856 199.707C241.664 198.98 241.263 198.44 240.652 198.087C240.039 197.723 239.276 197.584 238.361 197.67C237.414 197.76 236.654 198.016 236.083 198.436C235.512 198.857 235.261 199.442 235.332 200.192C235.381 200.709 235.651 201.095 236.142 201.349C236.633 201.602 237.351 201.79 238.296 201.912L241.44 202.364C242.343 202.501 243.092 202.73 243.69 203.051C244.287 203.372 244.767 203.744 245.129 204.165C245.49 204.576 245.754 205.012 245.92 205.474C246.096 205.924 246.203 206.348 246.24 206.744C246.345 207.846 246.148 208.815 245.649 209.651C245.16 210.476 244.418 211.146 243.422 211.663C242.426 212.18 241.223 212.505 239.813 212.639ZM250.491 211.293L248.872 194.207L252.805 193.834L253.037 196.28C253.26 195.814 253.577 195.356 253.991 194.906C254.415 194.454 254.951 194.07 255.599 193.753C256.247 193.436 257.022 193.234 257.926 193.149C258.983 193.049 259.983 193.165 260.927 193.498C261.881 193.83 262.675 194.416 263.311 195.256C263.957 196.095 264.347 197.22 264.481 198.63L265.545 209.867L261.513 210.249L260.494 199.491C260.388 198.368 260 197.565 259.332 197.084C258.663 196.591 257.86 196.39 256.924 196.478C256.285 196.539 255.69 196.706 255.138 196.981C254.585 197.245 254.147 197.614 253.825 198.089C253.514 198.552 253.388 199.109 253.45 199.759L254.507 210.913L250.491 211.293ZM269.948 185.34L269.601 193.993L267.486 194.194L265.569 185.755L269.948 185.34ZM284.581 193.691L280.764 194.053L281.709 203.85C281.757 204.357 281.848 204.726 281.981 204.958C282.124 205.178 282.326 205.315 282.586 205.368C282.857 205.409 283.213 205.408 283.653 205.367L285.752 205.168L285.993 207.712C285.781 207.821 285.452 207.93 285.007 208.039C284.574 208.158 283.983 208.253 283.233 208.324C281.878 208.453 280.81 208.376 280.027 208.094C279.255 207.801 278.694 207.337 278.345 206.703C277.996 206.069 277.778 205.295 277.691 204.381L276.748 194.433L273.972 194.696L273.703 191.854L276.595 191.58L277.122 186.411L280.014 186.137L280.493 191.194L284.31 190.832L284.581 193.691ZM301.715 206.723C301.88 208.464 301.596 209.802 300.862 210.739C300.14 211.685 298.832 212.248 296.937 212.428C296.023 212.514 295.426 212.493 295.147 212.364C294.869 212.246 294.73 212.187 294.73 212.187L294.46 209.511L295.954 209.27C296.662 209.114 297.144 208.862 297.4 208.516C297.657 208.18 297.754 207.682 297.692 207.021L296.054 189.736L300.069 189.355L301.715 206.723ZM299.492 182.558L299.852 186.358L295.688 186.753L295.328 182.952L299.492 182.558ZM312.605 205.741C311.768 205.82 310.947 205.776 310.142 205.608C309.346 205.427 308.618 205.13 307.956 204.714C307.293 204.288 306.747 203.74 306.316 203.069C305.886 202.398 305.626 201.595 305.538 200.659L304.427 188.943L308.46 188.56L309.526 199.814C309.614 200.739 309.977 201.472 310.618 202.011C311.269 202.55 312.19 202.763 313.379 202.65C314.459 202.548 315.297 202.185 315.894 201.561C316.489 200.927 316.737 200.075 316.635 199.007L315.582 187.886L319.581 187.507L321.2 204.593L318.11 204.886L317.347 201.59C317.227 202.546 316.927 203.32 316.45 203.909C315.982 204.487 315.406 204.92 314.722 205.207C314.049 205.493 313.343 205.671 312.605 205.741ZM331.957 203.907C330.768 204.02 329.621 203.94 328.517 203.666C327.422 203.381 326.473 202.865 325.669 202.119C324.876 201.372 324.324 200.362 324.015 199.091L327.551 198.756C327.765 199.369 328.083 199.856 328.506 200.216C328.941 200.575 329.436 200.823 329.994 200.959C330.55 201.084 331.11 201.12 331.671 201.067C332.696 200.969 333.506 200.715 334.1 200.303C334.706 199.89 334.973 199.314 334.903 198.576C334.852 198.036 334.635 197.623 334.253 197.337C333.87 197.051 333.285 196.862 332.498 196.77L329.172 196.335C327.699 196.152 326.487 195.733 325.535 195.079C324.595 194.423 324.056 193.424 323.917 192.081C323.81 191.068 323.978 190.141 324.421 189.299C324.863 188.457 325.575 187.761 326.557 187.212C327.538 186.653 328.783 186.301 330.292 186.158C332.286 185.969 333.926 186.264 335.211 187.043C336.495 187.81 337.232 189.013 337.42 190.651L334 190.976C333.809 190.249 333.407 189.709 332.796 189.356C332.183 188.991 331.42 188.852 330.506 188.939C329.558 189.029 328.799 189.284 328.227 189.705C327.656 190.126 327.406 190.711 327.477 191.46C327.526 191.978 327.796 192.364 328.287 192.617C328.777 192.871 329.495 193.059 330.441 193.18L333.585 193.633C334.487 193.769 335.237 193.998 335.834 194.32C336.431 194.641 336.911 195.012 337.273 195.434C337.635 195.844 337.898 196.28 338.064 196.743C338.24 197.193 338.347 197.616 338.385 198.013C338.489 199.114 338.292 200.084 337.793 200.92C337.304 201.744 336.562 202.415 335.566 202.932C334.57 203.448 333.367 203.774 331.957 203.907ZM350.615 187.434L346.798 187.795L347.743 197.593C347.791 198.1 347.882 198.469 348.015 198.701C348.158 198.921 348.36 199.057 348.62 199.11C348.891 199.151 349.247 199.151 349.687 199.109L351.786 198.91L352.027 201.455C351.815 201.564 351.487 201.673 351.041 201.782C350.608 201.901 350.017 201.996 349.267 202.067C347.912 202.195 346.844 202.119 346.061 201.837C345.289 201.544 344.728 201.08 344.379 200.446C344.03 199.812 343.812 199.038 343.725 198.124L342.783 188.176L340.006 188.439L339.737 185.597L342.629 185.323L343.156 180.154L346.048 179.88L346.527 184.937L350.344 184.575L350.615 187.434Z" fill="black"/>
<path d="M314.737 252.977C313.646 253.08 312.647 252.975 311.739 252.661C310.841 252.334 310.109 251.82 309.542 251.118C308.985 250.404 308.656 249.507 308.554 248.427C308.375 246.544 308.918 245.058 310.182 243.972C311.457 242.884 313.586 242.176 316.567 241.849L319.105 241.542L318.996 240.385C318.91 239.482 318.573 238.802 317.986 238.347C317.408 237.879 316.558 237.704 315.435 237.822C314.61 237.911 313.868 238.181 313.211 238.633C312.563 239.072 312.172 239.748 312.036 240.661L308.615 240.985C308.571 239.811 308.814 238.805 309.346 237.965C309.888 237.113 310.675 236.444 311.707 235.957C312.738 235.459 313.953 235.144 315.352 235.012C316.982 234.857 318.33 234.946 319.396 235.279C320.461 235.611 321.274 236.162 321.836 236.932C322.397 237.69 322.732 238.642 322.841 239.788L323.976 251.768L320.588 252.089L319.983 249.045C319.488 250.392 318.791 251.359 317.89 251.944C317 252.518 315.949 252.862 314.737 252.977ZM315.784 250.127C316.28 250.08 316.762 249.945 317.23 249.723C317.696 249.49 318.114 249.2 318.481 248.854C318.847 248.497 319.128 248.115 319.323 247.707C319.529 247.299 319.612 246.885 319.572 246.466L319.317 243.773L317.221 244.005C316.187 244.114 315.294 244.31 314.543 244.592C313.791 244.874 313.217 245.268 312.82 245.772C312.433 246.265 312.276 246.891 312.348 247.651C312.431 248.521 312.798 249.176 313.451 249.614C314.103 250.041 314.881 250.212 315.784 250.127ZM337.734 250.798C336.819 250.884 336.026 250.837 335.353 250.657C334.68 250.476 334.105 250.213 333.628 249.87C333.161 249.525 332.775 249.145 332.469 248.729C332.173 248.301 331.939 247.89 331.769 247.495L331.638 251.042L328.68 251.322L326.353 226.767L330.385 226.384L331.329 236.349C331.474 236.002 331.685 235.648 331.962 235.288C332.251 234.928 332.607 234.588 333.033 234.27C333.459 233.952 333.95 233.683 334.507 233.463C335.074 233.232 335.71 233.083 336.416 233.016C338.542 232.814 340.293 233.41 341.67 234.802C343.047 236.194 343.87 238.312 344.139 241.154C344.309 242.95 344.183 244.546 343.759 245.942C343.347 247.337 342.636 248.46 341.628 249.312C340.629 250.151 339.331 250.646 337.734 250.798ZM336.627 247.918C337.828 247.804 338.769 247.232 339.449 246.2C340.129 245.169 340.368 243.579 340.164 241.431C339.987 239.558 339.489 238.177 338.671 237.287C337.852 236.387 336.782 235.999 335.46 236.124C334.512 236.214 333.756 236.502 333.191 236.989C332.637 237.475 332.251 238.157 332.034 239.033C331.828 239.909 331.778 240.969 331.885 242.215C332.092 244.396 332.571 245.929 333.321 246.814C334.082 247.687 335.184 248.055 336.627 247.918ZM355.649 249.1C354.019 249.255 352.565 249.042 351.287 248.463C350.009 247.873 348.971 246.954 348.175 245.707C347.39 244.458 346.91 242.914 346.736 241.075C346.567 239.29 346.738 237.695 347.249 236.291C347.772 234.885 348.604 233.75 349.745 232.887C350.885 232.023 352.299 231.511 353.984 231.351C355.615 231.197 357.064 231.42 358.333 232.023C359.601 232.625 360.624 233.562 361.4 234.833C362.187 236.104 362.67 237.675 362.847 239.548C363.011 241.278 362.842 242.833 362.339 244.215C361.846 245.584 361.035 246.7 359.905 247.563C358.787 248.425 357.368 248.937 355.649 249.1ZM355.376 246.041C356.301 245.954 357.038 245.628 357.584 245.065C358.142 244.501 358.523 243.765 358.726 242.856C358.94 241.947 358.993 240.93 358.887 239.807C358.788 238.76 358.564 237.809 358.216 236.952C357.879 236.095 357.383 235.431 356.727 234.959C356.081 234.476 355.262 234.281 354.271 234.375C353.334 234.464 352.581 234.785 352.011 235.339C351.451 235.882 351.059 236.608 350.834 237.518C350.619 238.417 350.566 239.439 350.674 240.585C350.772 241.62 350.996 242.572 351.345 243.439C351.704 244.294 352.212 244.969 352.87 245.462C353.527 245.944 354.363 246.137 355.376 246.041ZM373.301 247.427C372.463 247.507 371.642 247.462 370.837 247.294C370.042 247.114 369.313 246.816 368.652 246.401C367.989 245.975 367.442 245.426 367.012 244.755C366.582 244.085 366.322 243.281 366.233 242.345L365.123 230.629L369.155 230.247L370.221 241.5C370.309 242.426 370.673 243.158 371.313 243.698C371.965 244.236 372.885 244.449 374.075 244.336C375.154 244.234 375.993 243.871 376.589 243.248C377.185 242.613 377.432 241.762 377.331 240.693L376.277 229.572L380.276 229.193L381.895 246.28L378.805 246.572L378.043 243.277C377.922 244.233 377.623 245.006 377.145 245.596C376.678 246.174 376.102 246.606 375.418 246.893C374.744 247.18 374.039 247.358 373.301 247.427ZM394.56 230.707L390.743 231.069L391.688 240.867C391.736 241.373 391.827 241.743 391.96 241.975C392.103 242.195 392.305 242.331 392.565 242.384C392.836 242.425 393.192 242.425 393.632 242.383L395.731 242.184L395.972 244.729C395.76 244.838 395.432 244.947 394.986 245.056C394.553 245.175 393.962 245.27 393.212 245.341C391.857 245.469 390.789 245.392 390.006 245.111C389.234 244.817 388.673 244.354 388.324 243.72C387.975 243.086 387.757 242.312 387.67 241.397L386.728 231.45L383.951 231.713L383.682 228.87L386.574 228.596L387.101 223.428L389.993 223.154L390.472 228.21L394.289 227.849L394.56 230.707ZM413.45 243.623C412.613 243.702 411.792 243.658 410.987 243.49C410.192 243.309 409.463 243.012 408.801 242.596C408.139 242.17 407.592 241.622 407.162 240.951C406.731 240.28 406.472 239.477 406.383 238.54L405.273 226.825L409.305 226.442L410.371 237.696C410.459 238.621 410.823 239.354 411.463 239.893C412.114 240.432 413.035 240.645 414.225 240.532C415.304 240.43 416.142 240.067 416.739 239.443C417.335 238.809 417.582 237.957 417.481 236.889L416.427 225.768L420.426 225.389L422.045 242.475L418.955 242.768L418.192 239.472C418.072 240.428 417.773 241.202 417.295 241.791C416.827 242.369 416.252 242.802 415.567 243.089C414.894 243.375 414.189 243.553 413.45 243.623ZM432.803 241.789C431.613 241.902 430.466 241.822 429.362 241.548C428.268 241.263 427.319 240.747 426.514 240.001C425.721 239.254 425.169 238.244 424.86 236.973L428.396 236.638C428.61 237.251 428.929 237.738 429.352 238.098C429.786 238.457 430.282 238.705 430.839 238.841C431.396 238.966 431.955 239.002 432.517 238.949C433.541 238.851 434.351 238.597 434.945 238.185C435.551 237.772 435.819 237.196 435.749 236.458C435.698 235.918 435.481 235.505 435.098 235.219C434.715 234.933 434.13 234.744 433.343 234.652L430.018 234.217C428.544 234.034 427.332 233.615 426.381 232.961C425.44 232.305 424.901 231.306 424.763 229.963C424.656 228.95 424.823 228.023 425.266 227.181C425.709 226.339 426.421 225.643 427.403 225.094C428.383 224.535 429.628 224.183 431.137 224.04C433.131 223.851 434.771 224.146 436.056 224.925C437.341 225.692 438.077 226.895 438.266 228.533L434.845 228.857C434.654 228.131 434.253 227.591 433.641 227.238C433.029 226.873 432.265 226.734 431.351 226.821C430.404 226.911 429.644 227.166 429.073 227.587C428.501 228.008 428.251 228.593 428.322 229.342C428.371 229.86 428.641 230.246 429.132 230.499C429.623 230.753 430.341 230.941 431.286 231.062L434.43 231.514C435.332 231.651 436.082 231.88 436.679 232.202C437.277 232.523 437.756 232.894 438.119 233.316C438.48 233.726 438.744 234.162 438.91 234.625C439.086 235.075 439.193 235.498 439.23 235.895C439.334 236.996 439.137 237.966 438.639 238.802C438.15 239.626 437.407 240.297 436.412 240.814C435.416 241.33 434.213 241.656 432.803 241.789ZM446.01 222.964L447.629 240.051L443.762 240.417L442.143 223.331L446.01 222.964ZM445.416 216.168L445.776 219.969L441.793 220.346L441.433 216.545L445.416 216.168ZM452.647 239.575L451.028 222.489L454.961 222.116L455.193 224.562C455.415 224.096 455.733 223.638 456.146 223.188C456.57 222.736 457.106 222.352 457.754 222.035C458.402 221.718 459.178 221.517 460.081 221.431C461.139 221.331 462.139 221.447 463.082 221.78C464.036 222.112 464.831 222.698 465.466 223.538C466.113 224.377 466.503 225.502 466.636 226.912L467.701 238.149L463.669 238.531L462.65 227.773C462.543 226.65 462.156 225.847 461.488 225.366C460.819 224.873 460.016 224.672 459.08 224.76C458.441 224.821 457.845 224.989 457.293 225.263C456.74 225.527 456.303 225.896 455.981 226.371C455.669 226.834 455.544 227.391 455.606 228.041L456.663 239.195L452.647 239.575ZM480.132 242.673C477.257 242.946 475.012 242.769 473.396 242.144C471.781 241.519 470.91 240.535 470.782 239.191C470.725 238.585 470.825 238.064 471.084 237.628C471.343 237.192 471.664 236.823 472.046 236.52C472.429 236.217 472.784 235.978 473.112 235.802C473.44 235.627 473.65 235.501 473.743 235.426C473.546 235.333 473.284 235.213 472.959 235.066C472.634 234.919 472.33 234.704 472.047 234.419C471.776 234.134 471.617 233.743 471.57 233.247C471.515 232.674 471.735 232.12 472.229 231.584C472.734 231.047 473.522 230.622 474.592 230.31C473.475 229.893 472.588 229.272 471.931 228.444C471.275 227.617 470.902 226.73 470.812 225.783C470.706 224.659 470.939 223.664 471.513 222.799C472.098 221.932 472.954 221.228 474.081 220.688C475.219 220.147 476.559 219.803 478.101 219.657C479.247 219.548 480.206 219.585 480.98 219.767C481.753 219.95 482.485 220.225 483.175 220.593C483.387 220.484 483.684 220.334 484.066 220.142C484.458 219.938 484.882 219.72 485.338 219.488C485.793 219.245 486.227 219.015 486.64 218.798C487.063 218.569 487.423 218.379 487.72 218.228L488.001 221.553L485.094 222.362C485.267 222.668 485.41 223.005 485.523 223.372C485.646 223.738 485.722 224.064 485.749 224.351C485.843 225.342 485.649 226.289 485.168 227.19C484.696 228.08 483.928 228.831 482.863 229.443C481.81 230.054 480.457 230.438 478.804 230.594C478.639 230.61 478.413 230.626 478.125 230.642C477.838 230.658 477.605 230.669 477.428 230.675C476.539 230.792 475.937 230.955 475.624 231.162C475.31 231.37 475.163 231.578 475.183 231.788C475.211 232.085 475.478 232.26 475.983 232.312C476.488 232.364 477.289 232.377 478.387 232.351C478.775 232.337 479.284 232.316 479.915 232.29C480.546 232.263 481.25 232.241 482.027 232.223C483.988 232.159 485.511 232.51 486.594 233.274C487.677 234.027 488.283 235.082 488.411 236.437C488.561 238.012 487.956 239.375 486.598 240.527C485.24 241.678 483.085 242.393 480.132 242.673ZM480.586 240.246C482.029 240.109 483.079 239.81 483.735 239.347C484.392 238.885 484.683 238.268 484.61 237.497C484.554 236.902 484.271 236.44 483.762 236.11C483.253 235.78 482.527 235.627 481.584 235.65L477.246 235.794C476.769 235.806 476.326 235.937 475.916 236.187C475.516 236.425 475.202 236.738 474.972 237.126C474.741 237.504 474.645 237.908 474.686 238.337C474.762 239.142 475.282 239.704 476.246 240.024C477.212 240.354 478.658 240.429 480.586 240.246ZM478.713 228.219C479.759 228.12 480.582 227.775 481.182 227.184C481.781 226.583 482.034 225.792 481.941 224.812C481.845 223.798 481.445 223.041 480.742 222.541C480.038 222.03 479.163 221.824 478.116 221.923C477.047 222.024 476.21 222.392 475.603 223.028C475.007 223.662 474.757 224.481 474.852 225.483C474.942 226.431 475.327 227.15 476.007 227.641C476.687 228.133 477.589 228.325 478.713 228.219Z" fill="black"/>
<path d="M312.353 275.355L328.163 273.857L328.473 277.301L316.807 278.407L317.466 285.359L327.761 284.384L328.083 287.776L317.788 288.752L318.771 299.13L314.643 299.522L312.353 275.355Z" fill="#FF3344"/>
<path d="M336.785 279.987L338.422 297.268L334.511 297.639L332.874 280.358L336.785 279.987ZM336.184 273.114L336.548 276.958L332.52 277.339L332.156 273.495L336.184 273.114Z" fill="#FFB805"/>
<path d="M351.729 301.774C348.821 302.05 346.551 301.872 344.917 301.24C343.283 300.607 342.402 299.612 342.273 298.252C342.215 297.64 342.317 297.113 342.579 296.672C342.84 296.231 343.165 295.858 343.552 295.551C343.938 295.245 344.298 295.003 344.629 294.825C344.961 294.648 345.174 294.521 345.268 294.444C345.068 294.351 344.803 294.23 344.475 294.081C344.146 293.932 343.838 293.714 343.553 293.426C343.278 293.138 343.117 292.743 343.069 292.241C343.014 291.662 343.237 291.101 343.736 290.559C344.247 290.016 345.044 289.587 346.127 289.27C344.996 288.849 344.099 288.22 343.435 287.384C342.771 286.547 342.394 285.65 342.303 284.692C342.196 283.555 342.432 282.549 343.012 281.674C343.604 280.797 344.469 280.085 345.609 279.539C346.76 278.991 348.116 278.644 349.675 278.496C350.834 278.386 351.805 278.423 352.586 278.608C353.368 278.792 354.109 279.071 354.807 279.443C355.022 279.333 355.322 279.181 355.708 278.987C356.105 278.78 356.533 278.56 356.995 278.325C357.455 278.079 357.894 277.846 358.311 277.627C358.739 277.395 359.103 277.204 359.403 277.051L359.688 280.414L356.747 281.232C356.923 281.541 357.067 281.882 357.181 282.253C357.306 282.624 357.383 282.954 357.41 283.243C357.505 284.246 357.309 285.203 356.822 286.115C356.345 287.015 355.569 287.774 354.492 288.393C353.426 289.011 352.058 289.4 350.386 289.558C350.219 289.574 349.99 289.59 349.7 289.606C349.409 289.623 349.174 289.634 348.994 289.639C348.095 289.758 347.487 289.923 347.169 290.133C346.852 290.343 346.703 290.553 346.724 290.765C346.752 291.066 347.022 291.243 347.533 291.296C348.043 291.348 348.854 291.361 349.965 291.335C350.357 291.32 350.872 291.299 351.51 291.273C352.148 291.246 352.86 291.224 353.645 291.205C355.629 291.141 357.169 291.495 358.265 292.268C359.36 293.03 359.973 294.096 360.103 295.467C360.254 297.06 359.642 298.439 358.269 299.603C356.895 300.768 354.715 301.491 351.729 301.774ZM352.188 299.319C353.648 299.181 354.71 298.878 355.374 298.411C356.037 297.943 356.332 297.319 356.259 296.539C356.202 295.938 355.916 295.47 355.401 295.137C354.886 294.803 354.151 294.648 353.198 294.671L348.811 294.817C348.328 294.829 347.88 294.961 347.465 295.214C347.061 295.455 346.743 295.772 346.51 296.165C346.276 296.546 346.18 296.955 346.221 297.389C346.298 298.203 346.824 298.771 347.799 299.095C348.775 299.429 350.238 299.504 352.188 299.319ZM350.294 287.155C351.352 287.055 352.185 286.706 352.791 286.109C353.397 285.501 353.653 284.701 353.559 283.71C353.462 282.684 353.058 281.919 352.346 281.413C351.634 280.896 350.749 280.688 349.69 280.788C348.61 280.89 347.762 281.263 347.149 281.906C346.546 282.547 346.293 283.375 346.389 284.389C346.48 285.347 346.869 286.075 347.557 286.572C348.245 287.069 349.157 287.263 350.294 287.155Z" fill="#03D383"/>
<path d="M364.38 294.809L362.743 277.528L366.704 277.152L366.938 279.626C367.368 278.821 367.985 278.099 368.79 277.46C369.607 276.821 370.683 276.438 372.02 276.311C372.633 276.253 373.261 276.3 373.905 276.453C374.561 276.604 375.175 276.861 375.749 277.223C376.334 277.583 376.817 278.054 377.198 278.637C377.667 277.772 378.328 277.034 379.181 276.425C380.045 275.815 381.045 275.456 382.182 275.348C382.806 275.289 383.456 275.329 384.132 275.467C384.82 275.604 385.464 275.88 386.065 276.296C386.667 276.711 387.179 277.309 387.601 278.089C388.023 278.859 388.291 279.851 388.406 281.065L389.483 292.43L385.422 292.815L384.391 281.935C384.31 281.077 384.095 280.417 383.748 279.955C383.401 279.493 382.978 279.185 382.48 279.03C381.992 278.863 381.48 278.804 380.946 278.855C380.467 278.9 379.974 279.042 379.468 279.282C378.974 279.519 378.563 279.873 378.237 280.343C377.921 280.811 377.799 281.413 377.868 282.148L378.937 293.429L374.876 293.814L373.783 282.282C373.726 281.681 373.523 281.194 373.173 280.822C372.823 280.451 372.399 280.187 371.901 280.032C371.413 279.865 370.924 279.805 370.433 279.851C369.932 279.898 369.429 280.053 368.926 280.314C368.433 280.574 368.035 280.938 367.731 281.405C367.427 281.873 367.307 282.452 367.373 283.143L368.442 294.424L364.38 294.809Z" fill="#01BEFF"/>
<path d="M398.722 291.892C397.618 291.996 396.608 291.89 395.69 291.572C394.782 291.242 394.041 290.722 393.468 290.012C392.905 289.29 392.571 288.382 392.468 287.291C392.287 285.385 392.836 283.883 394.115 282.784C395.405 281.684 397.557 280.968 400.572 280.637L403.14 280.327L403.029 279.157C402.942 278.243 402.602 277.556 402.007 277.095C401.423 276.622 400.563 276.445 399.428 276.564C398.593 276.654 397.843 276.928 397.178 277.384C396.523 277.828 396.127 278.512 395.99 279.436L392.53 279.764C392.485 278.576 392.732 277.558 393.269 276.709C393.817 275.848 394.613 275.171 395.657 274.678C396.7 274.175 397.929 273.856 399.344 273.722C400.993 273.566 402.356 273.656 403.433 273.992C404.511 274.329 405.334 274.886 405.902 275.664C406.469 276.431 406.808 277.394 406.918 278.552L408.066 290.669L404.64 290.994L404.027 287.915C403.527 289.278 402.822 290.255 401.911 290.848C401.01 291.428 399.947 291.776 398.722 291.892ZM399.781 289.009C400.282 288.961 400.769 288.825 401.243 288.601C401.715 288.365 402.137 288.072 402.508 287.722C402.879 287.361 403.163 286.974 403.36 286.562C403.568 286.149 403.652 285.731 403.612 285.307L403.354 282.583L401.234 282.817C400.188 282.928 399.285 283.126 398.525 283.411C397.765 283.697 397.185 284.095 396.783 284.605C396.392 285.103 396.233 285.737 396.306 286.505C396.389 287.386 396.761 288.047 397.421 288.491C398.08 288.923 398.867 289.096 399.781 289.009Z" fill="#AF4DFF"/>
<circle cx="263.157" cy="158.363" r="15.0897" transform="rotate(-5.41304 263.157 158.363)" fill="#FF742E"/>
<path d="M268.745 158.691C269.17 158.178 269.098 157.417 268.584 156.992L260.211 150.068C259.697 149.643 258.936 149.716 258.511 150.229C258.086 150.743 258.159 151.504 258.672 151.929L266.115 158.083L259.961 165.526C259.536 166.039 259.608 166.8 260.122 167.225C260.636 167.65 261.397 167.578 261.821 167.064L268.745 158.691ZM225.664 163.129L267.928 159.124L267.701 156.72L225.436 160.725L225.664 163.129Z" fill="black"/>
<circle cx="222.545" cy="162.212" r="4.22512" transform="rotate(-5.41304 222.545 162.212)" stroke="black" stroke-width="2.41435"/>
<circle cx="375.772" cy="186.983" r="12.0718" transform="rotate(-5.41304 375.772 186.983)" fill="#0062F4"/>
<circle cx="424.201" cy="182.394" r="12.0718" transform="rotate(-5.41304 424.201 182.394)" fill="#03D383"/>
<path d="M395.053 180.609L404.92 188.768" stroke="black" stroke-width="4.22512" stroke-linecap="round"/>
<path d="M404.093 180.036L395.907 189.622" stroke="black" stroke-width="4.22512" stroke-linecap="round"/>
<path d="M232.006 251.761C231.21 243.356 237.377 235.897 245.782 235.101L280.463 231.815C287.496 231.148 293.739 236.31 294.405 243.344C295.072 250.378 289.91 256.62 282.876 257.287L229.007 262.391C231.301 259.441 232.382 255.726 232.029 252.005L232.006 251.761Z" fill="#FFB805"/>
<circle cx="248.16" cy="247.726" r="9.05383" transform="rotate(-5.41304 248.16 247.726)" fill="#FF3A01"/>
<circle cx="279.579" cy="244.748" r="9.05383" transform="rotate(-5.41304 279.579 244.748)" fill="white"/>
<circle cx="279.579" cy="244.748" r="4.22512" transform="rotate(-5.41304 279.579 244.748)" fill="white" stroke="black" stroke-width="2.41435"/>
<path d="M233.285 249.135L235.52 248.923" stroke="black" stroke-width="2.41435" stroke-linecap="round"/>
<path d="M240.385 248.462L246.318 247.9" stroke="black" stroke-width="2.41435" stroke-linecap="round"/>
<path d="M254.611 247.114L275.267 245.157" stroke="black" stroke-width="2.41435" stroke-linecap="round"/>
<path d="M425.208 261.688C425.753 259.461 428 258.099 430.226 258.644L434.229 259.625L432.254 267.687L428.251 266.706C426.025 266.161 424.663 263.914 425.208 261.688Z" fill="#FF3344" stroke="black" stroke-width="1.81077" stroke-linejoin="round"/>
<path d="M423.127 270.217C423.673 267.991 425.919 266.629 428.146 267.174L432.148 268.155L430.173 276.216L426.171 275.236C423.944 274.69 422.582 272.444 423.127 270.217Z" fill="#A259FF" stroke="black" stroke-width="1.81077" stroke-linejoin="round"/>
<path d="M421.039 278.743C421.584 276.515 423.834 275.147 426.059 275.692L430.062 276.673L429.071 280.718C428.527 282.936 426.288 284.294 424.07 283.751C421.853 283.208 420.495 280.963 421.039 278.743Z" fill="#03DD89" stroke="black" stroke-width="1.81077" stroke-linejoin="round"/>
<path d="M434.65 259.728L438.653 260.708C440.879 261.254 442.242 263.501 441.696 265.727C441.151 267.953 438.904 269.316 436.678 268.77L432.675 267.79L434.65 259.728Z" fill="#FF5260" stroke="black" stroke-width="1.81077" stroke-linejoin="round"/>
<circle cx="436.099" cy="274.017" r="3.89915" transform="rotate(13.7652 436.099 274.017)" fill="#33CFFF" stroke="black" stroke-width="1.81077" stroke-linejoin="round"/>
</g>
<rect x="86.3167" y="82.9362" width="511.75" height="316.939" rx="22.9758" transform="rotate(-5.41304 86.3167 82.9362)" stroke="black" stroke-width="4"/>
<rect x="42.2621" y="25.5538" width="17.4846" height="17.4846" rx="1.79096" transform="rotate(13.0092 42.2621 25.5538)" stroke="black" stroke-width="2.68994" stroke-linejoin="round"/>
<circle cx="71.1344" cy="73.652" r="8.74232" transform="rotate(13.0092 71.1344 73.652)" stroke="black" stroke-width="2.68994"/>
<circle cx="35.1701" cy="95.0862" r="8.74232" transform="rotate(13.0092 35.1701 95.0862)" stroke="black" stroke-width="2.68994"/>
<path d="M53.5587 69.5914L62.5115 71.6598" stroke="black" stroke-width="2.68994" stroke-linecap="round"/>
<rect x="27.7943" y="63.6389" width="20.1746" height="20.1746" rx="2.01746" transform="rotate(-31.9908 27.7943 63.6389)" fill="#389BF8"/>
<path d="M46.8082 46.0352L37.5739 86.004" stroke="black" stroke-width="2.68994" stroke-linecap="round"/>
<path d="M69.015 82.8252L66.7772 92.5112" stroke="black" stroke-width="2.68994" stroke-linecap="round"/>
<path d="M53.106 92.7383C53.1577 90.7554 55.0142 89.318 56.9468 89.7645L74.0563 93.7175C75.5086 94.053 76.5241 95.3645 76.4852 96.8546L76.1156 111.038C76.064 113.021 74.2075 114.458 72.2748 114.012L55.1654 110.059C53.7131 109.723 52.6976 108.412 52.7364 106.922L53.106 92.7383Z" fill="#FFB805"/>
<circle cx="76.055" cy="348.118" r="21.749" transform="rotate(10.0208 76.055 348.118)" fill="#FF742E"/>
<path d="M83.6929 350.717C84.4802 350.166 84.6719 349.081 84.121 348.293L75.1439 335.463C74.593 334.676 73.5082 334.484 72.7208 335.035C71.9335 335.586 71.7418 336.67 72.2927 337.458L80.2723 348.863L68.8674 356.842C68.08 357.393 67.8883 358.478 68.4392 359.266C68.9901 360.053 70.0749 360.245 70.8623 359.694L83.6929 350.717ZM22.1366 340.357L82.3926 351.004L82.9982 347.578L22.7421 336.93L22.1366 340.357Z" fill="black"/>
<circle cx="18.1559" cy="337.887" r="6.08971" transform="rotate(10.0208 18.1559 337.887)" stroke="black" stroke-width="3.47983"/>
<circle cx="24.1943" cy="378.708" r="17.3992" transform="rotate(10.0208 24.1943 378.708)" fill="#00D47B"/>
<rect x="587.067" y="10.4562" width="77.0059" height="55.2077" rx="4.17849" transform="rotate(10.8441 587.067 10.4562)" fill="#FFC60B"/>
<rect x="580.542" y="1.71545" width="75.0059" height="53.2077" rx="3.17849" transform="rotate(10.8441 580.542 1.71545)" stroke="black" stroke-width="2"/>
<circle cx="593.47" cy="18.8119" r="2.08924" transform="rotate(10.8441 593.47 18.8119)" fill="black"/>
<circle cx="602.578" cy="20.5568" r="2.08924" transform="rotate(10.8441 602.578 20.5568)" fill="black"/>
<circle cx="611.687" cy="22.3016" r="2.08924" transform="rotate(10.8441 611.687 22.3016)" fill="black"/>
<path d="M599.417 41.6784C599.875 41.5593 600.277 42.0058 600.11 42.4486L596.721 51.4596C596.529 51.9695 595.805 51.9617 595.624 51.4477L594.193 47.3784C594.141 47.2317 594.033 47.1116 593.893 47.0449L589.996 45.1936C589.504 44.9598 589.572 44.2389 590.1 44.1018L599.417 41.6784Z" fill="#FFC60B" stroke="black" stroke-width="2"/>
<path d="M649.153 73.3239C649.147 72.8509 649.677 72.5684 650.067 72.8365L657.998 78.2942C658.447 78.6031 658.265 79.3041 657.722 79.3559L653.428 79.766C653.273 79.7808 653.131 79.8567 653.032 79.977L650.298 83.3138C649.953 83.7353 649.269 83.4955 649.263 82.9507L649.153 73.3239Z" fill="#FFC60B" stroke="black" stroke-width="2"/>
<rect x="609.259" y="332.172" width="67.2521" height="79.9304" rx="2.35" transform="rotate(-90.3534 609.259 332.172)" fill="#EEEEEE" stroke="black" stroke-width="4"/>
<path d="M609.26 330.856L689.397 266.004" stroke="black" stroke-width="4" stroke-linecap="round"/>
<path d="M610.576 267.853L688.08 329.007" stroke="black" stroke-width="4" stroke-linecap="round"/>
<rect x="649.32" y="243.065" width="47.571" height="32.4942" rx="7.60269" transform="rotate(-12.2069 649.32 243.065)" fill="#E09EFF"/>
<rect x="571.33" y="321.727" width="58.5178" height="42.7209" rx="4" transform="rotate(-9.55437 571.33 321.727)" fill="#00D47B"/>
<path d="M582.832 334.117L607.832 330.114M585.334 347.617L628.833 340.611" stroke="black" stroke-width="4" stroke-linecap="round"/>
<path d="M695.71 317.207L700.315 343.304" stroke="black" stroke-width="4" stroke-linecap="round"/>
<defs>
<clipPath id="clip0_589_252">
<rect x="84.137" y="81.1338" width="515.75" height="320.939" rx="24.9758" transform="rotate(-5.41304 84.137 81.1338)" fill="white"/>
</clipPath>
</defs>
</svg>
